<svg width="313" height="65" viewBox="0 0 313 65" fill="none" xmlns="http://www.w3.org/2000/svg">
<path d="M44.2438 38.9951V24.5951H49.2781C50.2812 24.5951 51.1086 24.7686 51.7602 25.1154C52.4117 25.4576 52.8969 25.9193 53.2156 26.5006C53.5344 27.0771 53.6938 27.717 53.6938 28.4201C53.6938 29.0389 53.5836 29.5498 53.3633 29.9529C53.1477 30.3561 52.8617 30.6748 52.5055 30.9092C52.1539 31.1436 51.7719 31.317 51.3594 31.4295V31.5701C51.8 31.5982 52.243 31.7529 52.6883 32.0342C53.1336 32.3154 53.5063 32.7186 53.8062 33.2436C54.1062 33.7686 54.2562 34.4107 54.2562 35.1701C54.2562 35.892 54.0922 36.5412 53.7641 37.1178C53.4359 37.6943 52.918 38.1514 52.2102 38.4889C51.5023 38.8264 50.5812 38.9951 49.4469 38.9951H44.2438ZM45.9875 37.4482H49.4469C50.5859 37.4482 51.3945 37.2279 51.8727 36.7873C52.3555 36.342 52.5969 35.8029 52.5969 35.1701C52.5969 34.6826 52.4727 34.2326 52.2242 33.8201C51.9758 33.4029 51.6219 33.0701 51.1625 32.8217C50.7031 32.5686 50.1594 32.442 49.5313 32.442H45.9875V37.4482ZM45.9875 30.9232H49.2219C49.7469 30.9232 50.2203 30.8201 50.6422 30.6139C51.0687 30.4076 51.4062 30.117 51.6547 29.742C51.9078 29.367 52.0344 28.9264 52.0344 28.4201C52.0344 27.7873 51.8141 27.2506 51.3734 26.81C50.9328 26.3646 50.2344 26.142 49.2781 26.142H45.9875V30.9232ZM61.4246 39.2201C60.384 39.2201 59.4863 38.9904 58.7316 38.5311C57.9816 38.067 57.4027 37.4201 56.9949 36.5904C56.5918 35.7561 56.3902 34.7857 56.3902 33.6795C56.3902 32.5732 56.5918 31.5982 56.9949 30.7545C57.4027 29.9061 57.9699 29.2451 58.6965 28.7717C59.4277 28.2936 60.2809 28.0545 61.2559 28.0545C61.8184 28.0545 62.3738 28.1482 62.9223 28.3357C63.4707 28.5232 63.9699 28.8279 64.4199 29.2498C64.8699 29.667 65.2285 30.2201 65.4957 30.9092C65.7629 31.5982 65.8965 32.4467 65.8965 33.4545V34.1576H57.5715V32.7232H64.209C64.209 32.1139 64.0871 31.5701 63.8434 31.092C63.6043 30.6139 63.2621 30.2365 62.8168 29.96C62.3762 29.6834 61.8559 29.5451 61.2559 29.5451C60.5949 29.5451 60.023 29.7092 59.5402 30.0373C59.0621 30.3607 58.6941 30.7826 58.4363 31.3029C58.1785 31.8232 58.0496 32.3811 58.0496 32.9764V33.9326C58.0496 34.7482 58.1902 35.4396 58.4715 36.0068C58.7574 36.5693 59.1535 36.9982 59.6598 37.2936C60.166 37.5842 60.7543 37.7295 61.4246 37.7295C61.8605 37.7295 62.2543 37.6686 62.6059 37.5467C62.9621 37.4201 63.2691 37.2326 63.527 36.9842C63.7848 36.7311 63.984 36.417 64.1246 36.042L65.7277 36.492C65.559 37.0357 65.2754 37.5139 64.877 37.9264C64.4785 38.3342 63.9863 38.6529 63.4004 38.8826C62.8145 39.1076 62.1559 39.2201 61.4246 39.2201ZM70.0801 24.5951V38.9951H68.4207V24.5951H70.0801ZM73.1193 38.9951V28.1951H74.7787V38.9951H73.1193ZM73.9631 26.3951C73.6396 26.3951 73.3607 26.285 73.1264 26.0646C72.8967 25.8443 72.7818 25.5795 72.7818 25.2701C72.7818 24.9607 72.8967 24.6959 73.1264 24.4756C73.3607 24.2553 73.6396 24.1451 73.9631 24.1451C74.2865 24.1451 74.5631 24.2553 74.7928 24.4756C75.0271 24.6959 75.1443 24.9607 75.1443 25.2701C75.1443 25.5795 75.0271 25.8443 74.7928 26.0646C74.5631 26.285 74.2865 26.3951 73.9631 26.3951ZM83.6117 38.9951V24.5951H88.4773C89.607 24.5951 90.5305 24.799 91.2477 25.2068C91.9695 25.61 92.5039 26.1561 92.8508 26.8451C93.1977 27.5342 93.3711 28.3029 93.3711 29.1514C93.3711 29.9998 93.1977 30.7709 92.8508 31.4646C92.5086 32.1584 91.9789 32.7115 91.2617 33.124C90.5445 33.5318 89.6258 33.7357 88.5055 33.7357H85.018V32.1889H88.4492C89.2227 32.1889 89.8438 32.0553 90.3125 31.7881C90.7813 31.5209 91.1211 31.16 91.332 30.7053C91.5477 30.2459 91.6555 29.7279 91.6555 29.1514C91.6555 28.5748 91.5477 28.0592 91.332 27.6045C91.1211 27.1498 90.7789 26.7936 90.3055 26.5357C89.832 26.2732 89.2039 26.142 88.4211 26.142H85.3555V38.9951H83.6117ZM95.9551 38.9951V28.1951H97.5582V29.8264H97.6707C97.8676 29.292 98.2238 28.8584 98.7394 28.5256C99.2551 28.1928 99.8363 28.0264 100.483 28.0264C100.605 28.0264 100.757 28.0287 100.94 28.0334C101.123 28.0381 101.261 28.0451 101.355 28.0545V29.742C101.299 29.7279 101.17 29.7068 100.968 29.6787C100.771 29.6459 100.563 29.6295 100.343 29.6295C99.8176 29.6295 99.3488 29.7396 98.9363 29.96C98.5285 30.1756 98.2051 30.4756 97.966 30.86C97.7316 31.2396 97.6145 31.6732 97.6145 32.1607V38.9951H95.9551ZM107.381 39.2201C106.406 39.2201 105.55 38.9881 104.814 38.524C104.083 38.06 103.511 37.4107 103.099 36.5764C102.691 35.742 102.487 34.767 102.487 33.6514C102.487 32.5264 102.691 31.5443 103.099 30.7053C103.511 29.8662 104.083 29.2146 104.814 28.7506C105.55 28.2865 106.406 28.0545 107.381 28.0545C108.356 28.0545 109.209 28.2865 109.94 28.7506C110.676 29.2146 111.248 29.8662 111.656 30.7053C112.068 31.5443 112.275 32.5264 112.275 33.6514C112.275 34.767 112.068 35.742 111.656 36.5764C111.248 37.4107 110.676 38.06 109.94 38.524C109.209 38.9881 108.356 39.2201 107.381 39.2201ZM107.381 37.7295C108.121 37.7295 108.731 37.5396 109.209 37.16C109.687 36.7803 110.041 36.2811 110.271 35.6623C110.5 35.0436 110.615 34.3732 110.615 33.6514C110.615 32.9295 110.5 32.2568 110.271 31.6334C110.041 31.01 109.687 30.5061 109.209 30.1217C108.731 29.7373 108.121 29.5451 107.381 29.5451C106.64 29.5451 106.031 29.7373 105.553 30.1217C105.075 30.5061 104.721 31.01 104.491 31.6334C104.261 32.2568 104.146 32.9295 104.146 33.6514C104.146 34.3732 104.261 35.0436 104.491 35.6623C104.721 36.2811 105.075 36.7803 105.553 37.16C106.031 37.5396 106.64 37.7295 107.381 37.7295ZM114.808 43.0451V28.1951H116.411V29.9107H116.608C116.729 29.7232 116.898 29.4842 117.114 29.1936C117.334 28.8982 117.648 28.6357 118.056 28.4061C118.469 28.1717 119.026 28.0545 119.729 28.0545C120.639 28.0545 121.44 28.2818 122.134 28.7365C122.828 29.1912 123.369 29.8357 123.758 30.6701C124.147 31.5045 124.342 32.4889 124.342 33.6232C124.342 34.767 124.147 35.7584 123.758 36.5975C123.369 37.4318 122.83 38.0787 122.141 38.5381C121.452 38.9928 120.658 39.2201 119.758 39.2201C119.064 39.2201 118.508 39.1053 118.091 38.8756C117.674 38.6412 117.353 38.3764 117.128 38.0811C116.903 37.7811 116.729 37.5326 116.608 37.3357H116.467V43.0451H114.808ZM116.439 33.5951C116.439 34.4107 116.558 35.1303 116.797 35.7537C117.037 36.3725 117.386 36.8576 117.845 37.2092C118.304 37.5561 118.867 37.7295 119.533 37.7295C120.226 37.7295 120.805 37.5467 121.269 37.1811C121.738 36.8107 122.09 36.3139 122.324 35.6904C122.563 35.0623 122.683 34.3639 122.683 33.5951C122.683 32.8357 122.565 32.1514 122.331 31.542C122.101 30.9279 121.752 30.4428 121.283 30.0865C120.819 29.7256 120.236 29.5451 119.533 29.5451C118.858 29.5451 118.29 29.7162 117.831 30.0584C117.372 30.3959 117.025 30.8693 116.79 31.4787C116.556 32.0834 116.439 32.7889 116.439 33.5951ZM131.401 39.2201C130.361 39.2201 129.463 38.9904 128.708 38.5311C127.958 38.067 127.379 37.4201 126.972 36.5904C126.569 35.7561 126.367 34.7857 126.367 33.6795C126.367 32.5732 126.569 31.5982 126.972 30.7545C127.379 29.9061 127.947 29.2451 128.673 28.7717C129.404 28.2936 130.258 28.0545 131.233 28.0545C131.795 28.0545 132.351 28.1482 132.899 28.3357C133.447 28.5232 133.947 28.8279 134.397 29.2498C134.847 29.667 135.205 30.2201 135.472 30.9092C135.74 31.5982 135.873 32.4467 135.873 33.4545V34.1576H127.548V32.7232H134.186C134.186 32.1139 134.064 31.5701 133.82 31.092C133.581 30.6139 133.239 30.2365 132.794 29.96C132.353 29.6834 131.833 29.5451 131.233 29.5451C130.572 29.5451 130 29.7092 129.517 30.0373C129.039 30.3607 128.671 30.7826 128.413 31.3029C128.155 31.8232 128.026 32.3811 128.026 32.9764V33.9326C128.026 34.7482 128.167 35.4396 128.448 36.0068C128.734 36.5693 129.13 36.9982 129.637 37.2936C130.143 37.5842 130.731 37.7295 131.401 37.7295C131.837 37.7295 132.231 37.6686 132.583 37.5467C132.939 37.4201 133.246 37.2326 133.504 36.9842C133.762 36.7311 133.961 36.417 134.101 36.042L135.704 36.492C135.536 37.0357 135.252 37.5139 134.854 37.9264C134.455 38.3342 133.963 38.6529 133.377 38.8826C132.791 39.1076 132.133 39.2201 131.401 39.2201ZM138.397 38.9951V28.1951H140.001V29.8264H140.113C140.31 29.292 140.666 28.8584 141.182 28.5256C141.697 28.1928 142.279 28.0264 142.926 28.0264C143.047 28.0264 143.2 28.0287 143.383 28.0334C143.565 28.0381 143.704 28.0451 143.797 28.0545V29.742C143.741 29.7279 143.612 29.7068 143.411 29.6787C143.214 29.6459 143.005 29.6295 142.785 29.6295C142.26 29.6295 141.791 29.7396 141.379 29.96C140.971 30.1756 140.647 30.4756 140.408 30.86C140.174 31.2396 140.057 31.6732 140.057 32.1607V38.9951H138.397ZM151.138 28.1951V29.6014H145.541V28.1951H151.138ZM147.172 25.6076H148.832V35.9014C148.832 36.3701 148.9 36.7217 149.036 36.9561C149.176 37.1857 149.354 37.3404 149.57 37.4201C149.79 37.4951 150.022 37.5326 150.266 37.5326C150.449 37.5326 150.599 37.5232 150.716 37.5045C150.833 37.4811 150.927 37.4623 150.997 37.4482L151.335 38.9389C151.222 38.9811 151.065 39.0232 150.864 39.0654C150.662 39.1123 150.407 39.1357 150.097 39.1357C149.629 39.1357 149.169 39.035 148.719 38.8334C148.274 38.6318 147.904 38.3248 147.608 37.9123C147.318 37.4998 147.172 36.9795 147.172 36.3514V25.6076ZM153.634 38.9951V28.1951H155.294V38.9951H153.634ZM154.478 26.3951C154.154 26.3951 153.876 26.285 153.641 26.0646C153.412 25.8443 153.297 25.5795 153.297 25.2701C153.297 24.9607 153.412 24.6959 153.641 24.4756C153.876 24.2553 154.154 24.1451 154.478 24.1451C154.801 24.1451 155.078 24.2553 155.308 24.4756C155.542 24.6959 155.659 24.9607 155.659 25.2701C155.659 25.5795 155.542 25.8443 155.308 26.0646C155.078 26.285 154.801 26.3951 154.478 26.3951ZM167.052 38.9951H162.833L167.586 24.5951H172.93L177.683 38.9951H173.464L170.314 28.5607H170.202L167.052 38.9951ZM166.264 33.3139H174.195V36.2389H166.264V33.3139ZM179.126 38.9951V28.1951H182.81V30.2482H182.923C183.148 29.5732 183.532 29.0389 184.076 28.6451C184.62 28.2514 185.267 28.0545 186.017 28.0545C186.776 28.0545 187.43 28.2561 187.978 28.6592C188.527 29.0576 188.857 29.5873 188.97 30.2482H189.082C189.265 29.5873 189.654 29.0576 190.249 28.6592C190.845 28.2561 191.543 28.0545 192.345 28.0545C193.381 28.0545 194.22 28.3873 194.862 29.0529C195.509 29.7186 195.832 30.6045 195.832 31.7107V38.9951H191.951V32.6951C191.951 32.2217 191.831 31.8514 191.592 31.5842C191.353 31.3123 191.032 31.1764 190.629 31.1764C190.231 31.1764 189.914 31.3123 189.68 31.5842C189.45 31.8514 189.335 32.2217 189.335 32.6951V38.9951H185.623V32.6951C185.623 32.2217 185.503 31.8514 185.264 31.5842C185.025 31.3123 184.704 31.1764 184.301 31.1764C184.034 31.1764 183.804 31.2373 183.612 31.3592C183.42 31.4811 183.27 31.6568 183.162 31.8865C183.059 32.1115 183.007 32.3811 183.007 32.6951V38.9951H179.126ZM200.756 39.1639C200.067 39.1639 199.457 39.0514 198.928 38.8264C198.403 38.5967 197.99 38.2498 197.69 37.7857C197.39 37.3217 197.24 36.7311 197.24 36.0139C197.24 35.4232 197.341 34.9193 197.543 34.5021C197.744 34.0803 198.025 33.7357 198.386 33.4686C198.747 33.2014 199.167 32.9975 199.645 32.8568C200.128 32.7162 200.648 32.6248 201.206 32.5826C201.811 32.5357 202.296 32.4795 202.661 32.4139C203.032 32.3436 203.299 32.2475 203.463 32.1256C203.627 31.999 203.709 31.8326 203.709 31.6264V31.5982C203.709 31.317 203.601 31.1014 203.386 30.9514C203.17 30.8014 202.893 30.7264 202.556 30.7264C202.186 30.7264 201.883 30.8084 201.649 30.9725C201.419 31.1318 201.281 31.3779 201.234 31.7107H197.662C197.709 31.0545 197.918 30.4498 198.288 29.8967C198.663 29.3389 199.209 28.8936 199.926 28.5607C200.643 28.2232 201.539 28.0545 202.612 28.0545C203.386 28.0545 204.079 28.1459 204.693 28.3287C205.307 28.5068 205.83 28.7576 206.261 29.0811C206.693 29.3998 207.021 29.7748 207.246 30.2061C207.475 30.6326 207.59 31.0967 207.59 31.5982V38.9951H203.962V37.4764H203.878C203.662 37.8795 203.4 38.2053 203.09 38.4537C202.786 38.7021 202.436 38.8826 202.043 38.9951C201.654 39.1076 201.225 39.1639 200.756 39.1639ZM202.021 36.717C202.317 36.717 202.593 36.6561 202.851 36.5342C203.114 36.4123 203.327 36.2365 203.491 36.0068C203.655 35.7771 203.737 35.4982 203.737 35.1701V34.2701C203.634 34.3123 203.524 34.3521 203.407 34.3896C203.294 34.4271 203.172 34.4623 203.041 34.4951C202.914 34.5279 202.779 34.5584 202.633 34.5865C202.493 34.6146 202.345 34.6404 202.19 34.6639C201.89 34.7107 201.644 34.7881 201.452 34.8959C201.264 34.999 201.124 35.1279 201.03 35.2826C200.941 35.4326 200.896 35.6014 200.896 35.7889C200.896 36.0889 201.002 36.3186 201.213 36.4779C201.424 36.6373 201.693 36.717 202.021 36.717ZM213.326 32.9201V38.9951H209.445V28.1951H213.129V30.2482H213.242C213.476 29.5639 213.888 29.0271 214.479 28.6381C215.074 28.249 215.768 28.0545 216.56 28.0545C217.324 28.0545 217.988 28.2303 218.55 28.5818C219.117 28.9287 219.556 29.4068 219.865 30.0162C220.179 30.6256 220.334 31.3217 220.329 32.1045V38.9951H216.448V32.9201C216.453 32.3857 216.317 31.9662 216.04 31.6615C215.768 31.3568 215.388 31.2045 214.901 31.2045C214.582 31.2045 214.303 31.2748 214.064 31.4154C213.83 31.5514 213.649 31.7482 213.523 32.0061C213.396 32.2592 213.331 32.5639 213.326 32.9201ZM230.83 39.2201C229.799 39.2201 228.911 39.0373 228.165 38.6717C227.42 38.3061 226.848 37.8162 226.45 37.2021C226.051 36.5881 225.852 35.9107 225.852 35.1701C225.852 34.6311 225.955 34.1553 226.162 33.7428C226.368 33.3256 226.656 32.9436 227.026 32.5967C227.397 32.2498 227.83 31.9076 228.327 31.5701L231.59 29.5451C231.918 29.3389 232.14 29.1256 232.258 28.9053C232.375 28.6803 232.433 28.4811 232.433 28.3076C232.433 28.0779 232.349 27.874 232.18 27.6959C232.012 27.5178 231.749 27.4311 231.393 27.4357C231.172 27.4357 230.983 27.4779 230.823 27.5623C230.664 27.642 230.54 27.7545 230.451 27.8998C230.366 28.0451 230.324 28.2186 230.324 28.4201C230.324 28.6967 230.404 28.9803 230.563 29.2709C230.722 29.5568 230.94 29.8662 231.217 30.199C231.494 30.5318 231.805 30.9045 232.152 31.317L239.127 38.9951H235.246L229.396 32.8076C229.11 32.5029 228.794 32.1303 228.447 31.6896C228.1 31.2443 227.8 30.7428 227.547 30.185C227.298 29.6271 227.174 29.0201 227.174 28.3639C227.174 27.6326 227.35 26.9646 227.701 26.36C228.053 25.7553 228.545 25.2725 229.178 24.9115C229.811 24.5506 230.549 24.3701 231.393 24.3701C232.199 24.3701 232.893 24.5365 233.474 24.8693C234.06 25.2021 234.51 25.6451 234.824 26.1982C235.143 26.7514 235.302 27.3607 235.302 28.0264C235.302 28.6967 235.136 29.3225 234.803 29.9037C234.475 30.485 234.004 30.9936 233.39 31.4295L230.408 33.5389C230.179 33.6982 229.979 33.8811 229.811 34.0873C229.647 34.2936 229.565 34.5607 229.565 34.8889C229.565 35.1607 229.628 35.3928 229.754 35.585C229.881 35.7771 230.059 35.9248 230.289 36.0279C230.523 36.1311 230.797 36.1826 231.112 36.1826C231.59 36.1826 232.068 36.0678 232.546 35.8381C233.029 35.6037 233.469 35.2779 233.868 34.8607C234.266 34.4389 234.585 33.942 234.824 33.3701C235.068 32.7936 235.19 32.1654 235.19 31.4857H238.255C238.255 32.3201 238.169 33.124 237.995 33.8975C237.822 34.6709 237.543 35.3787 237.158 36.0209C236.774 36.6631 236.268 37.2045 235.64 37.6451C235.443 37.7436 235.251 37.8373 235.063 37.9264C234.876 38.0154 234.683 38.1092 234.487 38.2076C233.91 38.5779 233.308 38.8404 232.679 38.9951C232.051 39.1451 231.435 39.2201 230.83 39.2201ZM243.884 24.5951H248.749L252.096 32.7514H252.265L255.612 24.5951H260.478V38.9951H256.653V30.6701H256.54L253.334 38.8826H251.028L247.821 30.6139H247.709V38.9951H243.884V24.5951ZM269.39 34.2701V28.1951H273.271V38.9951H269.587V36.942H269.474C269.24 37.6311 268.829 38.1701 268.244 38.5592C267.658 38.9436 266.962 39.1357 266.155 39.1357C265.401 39.1357 264.74 38.9623 264.172 38.6154C263.61 38.2686 263.172 37.7904 262.858 37.1811C262.548 36.5717 262.391 35.8732 262.387 35.0857V28.1951H266.268V34.2701C266.272 34.8045 266.408 35.224 266.676 35.5287C266.947 35.8334 267.327 35.9857 267.815 35.9857C268.138 35.9857 268.417 35.9178 268.651 35.7818C268.89 35.6412 269.073 35.4443 269.2 35.1912C269.331 34.9334 269.394 34.6264 269.39 34.2701ZM279.154 39.1357C278.386 39.1357 277.678 38.9342 277.031 38.5311C276.389 38.1279 275.873 37.5162 275.484 36.6959C275.1 35.8756 274.907 34.842 274.907 33.5951C274.907 32.292 275.109 31.2326 275.512 30.417C275.92 29.6014 276.445 29.0037 277.087 28.624C277.734 28.2443 278.414 28.0545 279.126 28.0545C279.661 28.0545 280.129 28.1482 280.532 28.3357C280.936 28.5186 281.273 28.7646 281.545 29.074C281.817 29.3787 282.023 29.7139 282.164 30.0795H282.22V24.5951H286.101V38.9951H282.248V37.2232H282.164C282.014 37.5889 281.798 37.917 281.517 38.2076C281.24 38.4936 280.903 38.7209 280.504 38.8896C280.111 39.0537 279.661 39.1357 279.154 39.1357ZM280.589 36.1545C280.945 36.1545 281.25 36.0514 281.503 35.8451C281.761 35.6342 281.957 35.3389 282.093 34.9592C282.234 34.5748 282.304 34.1201 282.304 33.5951C282.304 33.0607 282.234 32.6037 282.093 32.224C281.957 31.8396 281.761 31.5467 281.503 31.3451C281.25 31.1389 280.945 31.0357 280.589 31.0357C280.232 31.0357 279.928 31.1389 279.675 31.3451C279.426 31.5467 279.234 31.8396 279.098 32.224C278.967 32.6037 278.901 33.0607 278.901 33.5951C278.901 34.1295 278.967 34.5889 279.098 34.9732C279.234 35.3529 279.426 35.6459 279.675 35.8521C279.928 36.0537 280.232 36.1545 280.589 36.1545ZM291.016 39.1639C290.327 39.1639 289.718 39.0514 289.188 38.8264C288.663 38.5967 288.25 38.2498 287.95 37.7857C287.65 37.3217 287.5 36.7311 287.5 36.0139C287.5 35.4232 287.601 34.9193 287.803 34.5021C288.004 34.0803 288.286 33.7357 288.646 33.4686C289.007 33.2014 289.427 32.9975 289.905 32.8568C290.388 32.7162 290.908 32.6248 291.466 32.5826C292.071 32.5357 292.556 32.4795 292.921 32.4139C293.292 32.3436 293.559 32.2475 293.723 32.1256C293.887 31.999 293.969 31.8326 293.969 31.6264V31.5982C293.969 31.317 293.861 31.1014 293.646 30.9514C293.43 30.8014 293.154 30.7264 292.816 30.7264C292.446 30.7264 292.143 30.8084 291.909 30.9725C291.679 31.1318 291.541 31.3779 291.494 31.7107H287.922C287.969 31.0545 288.178 30.4498 288.548 29.8967C288.923 29.3389 289.469 28.8936 290.186 28.5607C290.904 28.2232 291.799 28.0545 292.872 28.0545C293.646 28.0545 294.339 28.1459 294.954 28.3287C295.568 28.5068 296.09 28.7576 296.521 29.0811C296.953 29.3998 297.281 29.7748 297.506 30.2061C297.736 30.6326 297.85 31.0967 297.85 31.5982V38.9951H294.222V37.4764H294.138C293.922 37.8795 293.66 38.2053 293.35 38.4537C293.046 38.7021 292.696 38.8826 292.303 38.9951C291.914 39.1076 291.485 39.1639 291.016 39.1639ZM292.282 36.717C292.577 36.717 292.854 36.6561 293.111 36.5342C293.374 36.4123 293.587 36.2365 293.751 36.0068C293.915 35.7771 293.997 35.4982 293.997 35.1701V34.2701C293.894 34.3123 293.784 34.3521 293.667 34.3896C293.554 34.4271 293.432 34.4623 293.301 34.4951C293.175 34.5279 293.039 34.5584 292.893 34.5865C292.753 34.6146 292.605 34.6404 292.45 34.6639C292.15 34.7107 291.904 34.7881 291.712 34.8959C291.525 34.999 291.384 35.1279 291.29 35.2826C291.201 35.4326 291.157 35.6014 291.157 35.7889C291.157 36.0889 291.262 36.3186 291.473 36.4779C291.684 36.6373 291.954 36.717 292.282 36.717ZM303.586 32.9201V38.9951H299.705V24.5951H303.445V30.2482H303.558C303.802 29.5592 304.207 29.0225 304.774 28.6381C305.342 28.249 306.024 28.0545 306.82 28.0545C307.585 28.0545 308.248 28.2279 308.81 28.5748C309.378 28.9217 309.816 29.3998 310.125 30.0092C310.439 30.6186 310.594 31.317 310.589 32.1045V38.9951H306.708V32.9201C306.713 32.3857 306.579 31.9662 306.307 31.6615C306.04 31.3568 305.658 31.2045 305.161 31.2045C304.847 31.2045 304.57 31.2748 304.331 31.4154C304.097 31.5514 303.914 31.7482 303.783 32.0061C303.656 32.2592 303.591 32.5639 303.586 32.9201Z" fill="#191919"/>
<path d="M23.9938 27.3225L21.4625 23.5237C21.375 23.4187 21.2687 23.3313 21.1437 23.2613C21.0212 23.1913 20.89 23.1562 20.75 23.1562H19.9062C19.6787 23.1562 19.4812 23.24 19.3137 23.4075C19.1462 23.575 19.0625 23.7725 19.0625 24V29.0625C19.0625 29.29 19.1462 29.4875 19.3137 29.655C19.4812 29.8225 19.6787 29.9062 19.9062 29.9062H23.2812C23.5088 29.9062 23.7063 29.8225 23.8738 29.655C24.0413 29.4875 24.125 29.29 24.125 29.0625V27.7987C24.125 27.7088 24.1112 27.625 24.0837 27.5475C24.0588 27.4675 24.0288 27.3925 23.9938 27.3225ZM23.2812 27.7987V29.0625H19.9062V24H20.75L23.2812 27.7987ZM27.08 26.82L23.705 21.7575C23.4575 21.4075 23.1488 21.1312 22.7787 20.9288C22.4112 20.7262 22.0163 20.625 21.5938 20.625H18.2188V18.9375C18.2188 18.235 17.9725 17.6375 17.48 17.145C16.9875 16.6525 16.39 16.4062 15.6875 16.4062H3.03125C2.32875 16.4062 1.73125 16.6525 1.23875 17.145C0.74625 17.6375 0.5 18.235 0.5 18.9375V28.2188C0.5 28.9213 0.74625 29.5187 1.23875 30.0112C1.73125 30.5037 2.32875 30.75 3.03125 30.75V33.2812C3.03125 33.9837 3.2775 34.5812 3.77 35.0737C4.2625 35.5662 4.86 35.8125 5.5625 35.8125H6.5375C6.7125 36.5325 7.1 37.135 7.7 37.62C8.2975 38.1025 8.99125 38.3438 9.78125 38.3438C10.5712 38.3438 11.265 38.1025 11.8625 37.62C12.4625 37.135 12.85 36.5325 13.025 35.8125H17.48C17.6725 36.5325 18.0688 37.135 18.6688 37.62C19.2663 38.1025 19.96 38.3438 20.75 38.3438C21.54 38.3438 22.2337 38.1025 22.8312 37.62C23.4312 37.135 23.8188 36.5325 23.9938 35.8125H24.9688C25.6712 35.8125 26.2687 35.5662 26.7612 35.0737C27.2537 34.5812 27.5 33.9837 27.5 33.2812V28.2188C27.5 27.9738 27.465 27.7325 27.395 27.495C27.325 27.2575 27.22 27.0325 27.08 26.82ZM15.6875 29.0625H3.03125C2.80375 29.0625 2.60625 28.9788 2.43875 28.8113C2.27125 28.6438 2.1875 28.4462 2.1875 28.2188V18.9375C2.1875 18.71 2.27125 18.5125 2.43875 18.345C2.60625 18.1775 2.80375 18.0938 3.03125 18.0938H15.6875C15.915 18.0938 16.1125 18.1775 16.28 18.345C16.4475 18.5125 16.5312 18.71 16.5312 18.9375V28.2188C16.5312 28.4462 16.4475 28.6438 16.28 28.8113C16.1125 28.9788 15.915 29.0625 15.6875 29.0625ZM9.78125 36.6562C9.32375 36.6562 8.92875 36.4888 8.59625 36.1537C8.26125 35.8212 8.09375 35.4263 8.09375 34.9688C8.09375 34.5112 8.26125 34.1163 8.59625 33.7838C8.92875 33.4487 9.32375 33.2812 9.78125 33.2812C10.2563 33.2812 10.6562 33.4487 10.9813 33.7838C11.3063 34.1163 11.4688 34.5112 11.4688 34.9688C11.4688 35.4263 11.3063 35.8212 10.9813 36.1537C10.6562 36.4888 10.2563 36.6562 9.78125 36.6562ZM20.75 36.6562C20.275 36.6562 19.875 36.4888 19.55 36.1537C19.225 35.8212 19.0625 35.4263 19.0625 34.9688C19.0625 34.5112 19.225 34.1163 19.55 33.7838C19.875 33.4487 20.275 33.2812 20.75 33.2812C21.2075 33.2812 21.6025 33.4487 21.935 33.7838C22.27 34.1163 22.4375 34.5112 22.4375 34.9688C22.4375 35.4263 22.27 35.8212 21.935 36.1537C21.6025 36.4888 21.2075 36.6562 20.75 36.6562ZM25.8125 28.2188V33.2812C25.8125 33.5088 25.7288 33.7063 25.5613 33.8738C25.3938 34.0413 25.1963 34.125 24.9688 34.125H23.9938C23.8188 33.405 23.4312 32.8025 22.8312 32.3175C22.2337 31.835 21.54 31.5938 20.75 31.5938C19.96 31.5938 19.2663 31.835 18.6688 32.3175C18.0688 32.8025 17.6812 33.405 17.5062 34.125H13.025C12.85 33.405 12.4625 32.8025 11.8625 32.3175C11.265 31.835 10.5712 31.5938 9.78125 31.5938C8.99125 31.5938 8.2975 31.835 7.7 32.3175C7.1 32.8025 6.7125 33.405 6.5375 34.125H5.5625C5.335 34.125 5.1375 34.0413 4.97 33.8738C4.8025 33.7063 4.71875 33.5088 4.71875 33.2812V30.75H15.6875C16.39 30.75 16.9875 30.5037 17.48 30.0112C17.9725 29.5187 18.2188 28.9213 18.2188 28.2188V22.3125H21.5938C21.7337 22.3125 21.865 22.3475 21.9875 22.4175C22.1125 22.4875 22.2188 22.575 22.3063 22.68L25.6813 27.7425C25.7163 27.815 25.7463 27.89 25.7712 27.9675C25.7987 28.0475 25.8125 28.1313 25.8125 28.2188Z" fill="#00D084"/>
</svg>
