<svg width="265" height="64" viewBox="0 0 265 64" fill="none" xmlns="http://www.w3.org/2000/svg">
<path d="M43.7438 23.7201H45.825L50.7188 35.6732H50.8875L55.7812 23.7201H57.8625V38.1201H56.2312V27.1795H56.0906L51.5906 38.1201H50.0156L45.5156 27.1795H45.375V38.1201H43.7438V23.7201ZM61.1338 38.1201V27.3201H62.7932V38.1201H61.1338ZM61.9775 25.5201C61.6541 25.5201 61.3752 25.41 61.1408 25.1896C60.9111 24.9693 60.7963 24.7045 60.7963 24.3951C60.7963 24.0857 60.9111 23.8209 61.1408 23.6006C61.3752 23.3803 61.6541 23.2701 61.9775 23.2701C62.301 23.2701 62.5775 23.3803 62.8072 23.6006C63.0416 23.8209 63.1588 24.0857 63.1588 24.3951C63.1588 24.7045 63.0416 24.9693 62.8072 25.1896C62.5775 25.41 62.301 25.5201 61.9775 25.5201ZM70.5293 27.3201V28.7264H64.9324V27.3201H70.5293ZM66.5637 24.7326H68.223V35.0264C68.223 35.4951 68.291 35.8467 68.427 36.0811C68.5676 36.3107 68.7457 36.4654 68.9613 36.5451C69.1816 36.6201 69.4137 36.6576 69.6574 36.6576C69.8402 36.6576 69.9902 36.6482 70.1074 36.6295C70.2246 36.6061 70.3184 36.5873 70.3887 36.5732L70.7262 38.0639C70.6137 38.1061 70.4566 38.1482 70.2551 38.1904C70.0535 38.2373 69.798 38.2607 69.4887 38.2607C69.0199 38.2607 68.5605 38.16 68.1105 37.9584C67.6652 37.7568 67.2949 37.4498 66.9996 37.0373C66.709 36.6248 66.5637 36.1045 66.5637 35.4764V24.7326ZM73.0254 38.1201V27.3201H74.6285V28.9514H74.741C74.9379 28.417 75.2941 27.9834 75.8098 27.6506C76.3254 27.3178 76.9066 27.1514 77.5535 27.1514C77.6754 27.1514 77.8277 27.1537 78.0105 27.1584C78.1934 27.1631 78.3316 27.1701 78.4254 27.1795V28.867C78.3691 28.8529 78.2402 28.8318 78.0387 28.8037C77.8418 28.7709 77.6332 28.7545 77.4129 28.7545C76.8879 28.7545 76.4191 28.8646 76.0066 29.085C75.5988 29.3006 75.2754 29.6006 75.0363 29.985C74.802 30.3646 74.6848 30.7982 74.6848 31.2857V38.1201H73.0254ZM83.5705 38.3732C82.8861 38.3732 82.265 38.2443 81.7072 37.9865C81.1494 37.724 80.7064 37.3467 80.3783 36.8545C80.0502 36.3576 79.8861 35.7576 79.8861 35.0545C79.8861 34.4357 80.008 33.9342 80.2518 33.5498C80.4955 33.1607 80.8213 32.8561 81.2291 32.6357C81.6369 32.4154 82.0869 32.2514 82.5791 32.1436C83.076 32.0311 83.5752 31.942 84.0768 31.8764C84.733 31.792 85.265 31.7287 85.6728 31.6865C86.0853 31.6396 86.3853 31.5623 86.5728 31.4545C86.765 31.3467 86.8611 31.1592 86.8611 30.892V30.8357C86.8611 30.142 86.6713 29.6029 86.2916 29.2186C85.9166 28.8342 85.3471 28.642 84.583 28.642C83.7908 28.642 83.1697 28.8154 82.7197 29.1623C82.2697 29.5092 81.9533 29.8795 81.7705 30.2732L80.1955 29.7107C80.4768 29.0545 80.8518 28.5436 81.3205 28.1779C81.7939 27.8076 82.3096 27.5498 82.8674 27.4045C83.4299 27.2545 83.983 27.1795 84.5268 27.1795C84.8736 27.1795 85.2721 27.2217 85.7221 27.3061C86.1768 27.3857 86.615 27.5521 87.0369 27.8053C87.4635 28.0584 87.8174 28.4404 88.0986 28.9514C88.3799 29.4623 88.5205 30.1467 88.5205 31.0045V38.1201H86.8611V36.6576H86.7768C86.6643 36.892 86.4768 37.1428 86.2143 37.41C85.9518 37.6771 85.6025 37.9045 85.1666 38.092C84.7307 38.2795 84.1986 38.3732 83.5705 38.3732ZM83.8236 36.8826C84.4799 36.8826 85.033 36.7537 85.483 36.4959C85.9377 36.2381 86.2799 35.9053 86.5096 35.4975C86.7439 35.0896 86.8611 34.6607 86.8611 34.2107V32.692C86.7908 32.7764 86.6361 32.8537 86.3971 32.924C86.1627 32.9896 85.8908 33.0482 85.5814 33.0998C85.2768 33.1467 84.9791 33.1889 84.6885 33.2264C84.4025 33.2592 84.1705 33.2873 83.9924 33.3107C83.5611 33.367 83.158 33.4584 82.783 33.585C82.4127 33.7068 82.1127 33.892 81.883 34.1404C81.658 34.3842 81.5455 34.717 81.5455 35.1389C81.5455 35.7154 81.7588 36.1514 82.1853 36.4467C82.6166 36.7373 83.1627 36.8826 83.8236 36.8826ZM97.343 38.1201V23.7201H102.209C103.338 23.7201 104.262 23.924 104.979 24.3318C105.701 24.735 106.235 25.2811 106.582 25.9701C106.929 26.6592 107.102 27.4279 107.102 28.2764C107.102 29.1248 106.929 29.8959 106.582 30.5896C106.24 31.2834 105.71 31.8365 104.993 32.249C104.276 32.6568 103.357 32.8607 102.237 32.8607H98.7492V31.3139H102.18C102.954 31.3139 103.575 31.1803 104.044 30.9131C104.512 30.6459 104.852 30.285 105.063 29.8303C105.279 29.3709 105.387 28.8529 105.387 28.2764C105.387 27.6998 105.279 27.1842 105.063 26.7295C104.852 26.2748 104.51 25.9186 104.037 25.6607C103.563 25.3982 102.935 25.267 102.152 25.267H99.0867V38.1201H97.343ZM109.686 38.1201V27.3201H111.289V28.9514H111.402C111.599 28.417 111.955 27.9834 112.471 27.6506C112.986 27.3178 113.568 27.1514 114.214 27.1514C114.336 27.1514 114.489 27.1537 114.671 27.1584C114.854 27.1631 114.993 27.1701 115.086 27.1795V28.867C115.03 28.8529 114.901 28.8318 114.7 28.8037C114.503 28.7709 114.294 28.7545 114.074 28.7545C113.549 28.7545 113.08 28.8646 112.668 29.085C112.26 29.3006 111.936 29.6006 111.697 29.985C111.463 30.3646 111.346 30.7982 111.346 31.2857V38.1201H109.686ZM121.112 38.3451C120.137 38.3451 119.282 38.1131 118.546 37.649C117.814 37.185 117.243 36.5357 116.83 35.7014C116.422 34.867 116.218 33.892 116.218 32.7764C116.218 31.6514 116.422 30.6693 116.83 29.8303C117.243 28.9912 117.814 28.3396 118.546 27.8756C119.282 27.4115 120.137 27.1795 121.112 27.1795C122.087 27.1795 122.94 27.4115 123.671 27.8756C124.407 28.3396 124.979 28.9912 125.387 29.8303C125.8 30.6693 126.006 31.6514 126.006 32.7764C126.006 33.892 125.8 34.867 125.387 35.7014C124.979 36.5357 124.407 37.185 123.671 37.649C122.94 38.1131 122.087 38.3451 121.112 38.3451ZM121.112 36.8545C121.853 36.8545 122.462 36.6646 122.94 36.285C123.418 35.9053 123.772 35.4061 124.002 34.7873C124.232 34.1686 124.346 33.4982 124.346 32.7764C124.346 32.0545 124.232 31.3818 124.002 30.7584C123.772 30.135 123.418 29.6311 122.94 29.2467C122.462 28.8623 121.853 28.6701 121.112 28.6701C120.371 28.6701 119.762 28.8623 119.284 29.2467C118.806 29.6311 118.452 30.135 118.222 30.7584C117.993 31.3818 117.878 32.0545 117.878 32.7764C117.878 33.4982 117.993 34.1686 118.222 34.7873C118.452 35.4061 118.806 35.9053 119.284 36.285C119.762 36.6646 120.371 36.8545 121.112 36.8545ZM128.539 42.1701V27.3201H130.142V29.0357H130.339C130.461 28.8482 130.629 28.6092 130.845 28.3186C131.065 28.0232 131.379 27.7607 131.787 27.5311C132.2 27.2967 132.758 27.1795 133.461 27.1795C134.37 27.1795 135.172 27.4068 135.865 27.8615C136.559 28.3162 137.101 28.9607 137.49 29.7951C137.879 30.6295 138.073 31.6139 138.073 32.7482C138.073 33.892 137.879 34.8834 137.49 35.7225C137.101 36.5568 136.562 37.2037 135.872 37.6631C135.183 38.1178 134.389 38.3451 133.489 38.3451C132.795 38.3451 132.24 38.2303 131.822 38.0006C131.405 37.7662 131.084 37.5014 130.859 37.2061C130.634 36.9061 130.461 36.6576 130.339 36.4607H130.198V42.1701H128.539ZM130.17 32.7201C130.17 33.5357 130.29 34.2553 130.529 34.8787C130.768 35.4975 131.117 35.9826 131.576 36.3342C132.036 36.6811 132.598 36.8545 133.264 36.8545C133.958 36.8545 134.537 36.6717 135.001 36.3061C135.469 35.9357 135.821 35.4389 136.055 34.8154C136.294 34.1873 136.414 33.4889 136.414 32.7201C136.414 31.9607 136.297 31.2764 136.062 30.667C135.833 30.0529 135.483 29.5678 135.015 29.2115C134.551 28.8506 133.967 28.6701 133.264 28.6701C132.589 28.6701 132.022 28.8412 131.562 29.1834C131.103 29.5209 130.756 29.9943 130.522 30.6037C130.287 31.2084 130.17 31.9139 130.17 32.7201ZM145.133 38.3451C144.092 38.3451 143.194 38.1154 142.44 37.6561C141.69 37.192 141.111 36.5451 140.703 35.7154C140.3 34.8811 140.098 33.9107 140.098 32.8045C140.098 31.6982 140.3 30.7232 140.703 29.8795C141.111 29.0311 141.678 28.3701 142.404 27.8967C143.136 27.4186 143.989 27.1795 144.964 27.1795C145.526 27.1795 146.082 27.2732 146.63 27.4607C147.179 27.6482 147.678 27.9529 148.128 28.3748C148.578 28.792 148.937 29.3451 149.204 30.0342C149.471 30.7232 149.604 31.5717 149.604 32.5795V33.2826H141.279V31.8482H147.917C147.917 31.2389 147.795 30.6951 147.551 30.217C147.312 29.7389 146.97 29.3615 146.525 29.085C146.084 28.8084 145.564 28.6701 144.964 28.6701C144.303 28.6701 143.731 28.8342 143.248 29.1623C142.77 29.4857 142.402 29.9076 142.144 30.4279C141.887 30.9482 141.758 31.5061 141.758 32.1014V33.0576C141.758 33.8732 141.898 34.5646 142.179 35.1318C142.465 35.6943 142.862 36.1232 143.368 36.4186C143.874 36.7092 144.462 36.8545 145.133 36.8545C145.569 36.8545 145.962 36.7936 146.314 36.6717C146.67 36.5451 146.977 36.3576 147.235 36.1092C147.493 35.8561 147.692 35.542 147.833 35.167L149.436 35.617C149.267 36.1607 148.983 36.6389 148.585 37.0514C148.187 37.4592 147.694 37.7779 147.108 38.0076C146.522 38.2326 145.864 38.3451 145.133 38.3451ZM152.129 38.1201V27.3201H153.732V28.9514H153.844C154.041 28.417 154.397 27.9834 154.913 27.6506C155.429 27.3178 156.01 27.1514 156.657 27.1514C156.779 27.1514 156.931 27.1537 157.114 27.1584C157.297 27.1631 157.435 27.1701 157.529 27.1795V28.867C157.472 28.8529 157.344 28.8318 157.142 28.8037C156.945 28.7709 156.737 28.7545 156.516 28.7545C155.991 28.7545 155.522 28.8646 155.11 29.085C154.702 29.3006 154.379 29.6006 154.14 29.985C153.905 30.3646 153.788 30.7982 153.788 31.2857V38.1201H152.129ZM164.869 27.3201V28.7264H159.272V27.3201H164.869ZM160.904 24.7326H162.563V35.0264C162.563 35.4951 162.631 35.8467 162.767 36.0811C162.908 36.3107 163.086 36.4654 163.301 36.5451C163.522 36.6201 163.754 36.6576 163.997 36.6576C164.18 36.6576 164.33 36.6482 164.447 36.6295C164.565 36.6061 164.658 36.5873 164.729 36.5732L165.066 38.0639C164.954 38.1061 164.797 38.1482 164.595 38.1904C164.394 38.2373 164.138 38.2607 163.829 38.2607C163.36 38.2607 162.901 38.16 162.451 37.9584C162.005 37.7568 161.635 37.4498 161.34 37.0373C161.049 36.6248 160.904 36.1045 160.904 35.4764V24.7326ZM167.365 38.1201V27.3201H169.025V38.1201H167.365ZM168.209 25.5201C167.886 25.5201 167.607 25.41 167.372 25.1896C167.143 24.9693 167.028 24.7045 167.028 24.3951C167.028 24.0857 167.143 23.8209 167.372 23.6006C167.607 23.3803 167.886 23.2701 168.209 23.2701C168.533 23.2701 168.809 23.3803 169.039 23.6006C169.273 23.8209 169.39 24.0857 169.39 24.3951C169.39 24.7045 169.273 24.9693 169.039 25.1896C168.809 25.41 168.533 25.5201 168.209 25.5201ZM176.648 26.8701V23.7201H189.164V26.8701H184.833V38.1201H180.98V26.8701H176.648ZM194.3 38.317C193.147 38.317 192.154 38.0967 191.319 37.6561C190.489 37.2107 189.85 36.5732 189.4 35.7436C188.954 34.9092 188.732 33.9107 188.732 32.7482C188.732 31.6326 188.957 30.6576 189.407 29.8232C189.857 28.9889 190.492 28.3396 191.312 27.8756C192.132 27.4115 193.1 27.1795 194.216 27.1795C195.032 27.1795 195.77 27.3061 196.431 27.5592C197.092 27.8123 197.657 28.1803 198.125 28.6631C198.594 29.1412 198.955 29.7225 199.208 30.4068C199.461 31.0912 199.588 31.8623 199.588 32.7201V33.6201H189.941V31.4826H196.016C196.011 31.1732 195.932 30.9014 195.777 30.667C195.627 30.4279 195.423 30.2428 195.165 30.1115C194.912 29.9756 194.624 29.9076 194.3 29.9076C193.986 29.9076 193.698 29.9756 193.436 30.1115C193.173 30.2428 192.962 30.4256 192.803 30.66C192.648 30.8943 192.566 31.1686 192.557 31.4826V33.7889C192.557 34.1357 192.629 34.4451 192.775 34.717C192.92 34.9889 193.129 35.2021 193.4 35.3568C193.672 35.5115 194 35.5889 194.385 35.5889C194.652 35.5889 194.896 35.5514 195.116 35.4764C195.341 35.4014 195.533 35.2936 195.693 35.1529C195.852 35.0076 195.969 34.8342 196.044 34.6326H199.588C199.466 35.3826 199.178 36.0342 198.723 36.5873C198.268 37.1357 197.666 37.5623 196.916 37.867C196.171 38.167 195.299 38.317 194.3 38.317ZM201.172 38.1201V27.3201H204.94V29.3732H205.053C205.25 28.6139 205.562 28.0584 205.988 27.7068C206.419 27.3553 206.923 27.1795 207.5 27.1795C207.669 27.1795 207.835 27.1936 207.999 27.2217C208.168 27.2451 208.329 27.2803 208.484 27.3271V30.6389C208.292 30.5732 208.055 30.524 207.774 30.4912C207.493 30.4584 207.251 30.442 207.05 30.442C206.67 30.442 206.328 30.5287 206.023 30.7021C205.723 30.8709 205.487 31.11 205.313 31.4193C205.14 31.724 205.053 32.0826 205.053 32.4951V38.1201H201.172ZM209.701 38.1201V23.7201H213.582V29.2045H213.638C213.779 28.8389 213.985 28.5037 214.257 28.199C214.529 27.8896 214.866 27.6436 215.269 27.4607C215.672 27.2732 216.141 27.1795 216.676 27.1795C217.388 27.1795 218.065 27.3693 218.708 27.749C219.354 28.1287 219.879 28.7264 220.283 29.542C220.69 30.3576 220.894 31.417 220.894 32.7201C220.894 33.967 220.7 35.0006 220.311 35.8209C219.926 36.6412 219.411 37.2529 218.764 37.6561C218.122 38.0592 217.416 38.2607 216.647 38.2607C216.141 38.2607 215.689 38.1787 215.29 38.0146C214.897 37.8459 214.559 37.6186 214.278 37.3326C214.001 37.042 213.788 36.7139 213.638 36.3482H213.554V38.1201H209.701ZM213.497 32.7201C213.497 33.2451 213.565 33.6998 213.701 34.0842C213.842 34.4639 214.039 34.7592 214.292 34.9701C214.55 35.1764 214.857 35.2795 215.213 35.2795C215.569 35.2795 215.872 35.1787 216.12 34.9771C216.373 34.7709 216.565 34.4779 216.697 34.0982C216.833 33.7139 216.901 33.2545 216.901 32.7201C216.901 32.1857 216.833 31.7287 216.697 31.349C216.565 30.9646 216.373 30.6717 216.12 30.4701C215.872 30.2639 215.569 30.1607 215.213 30.1607C214.857 30.1607 214.55 30.2639 214.292 30.4701C214.039 30.6717 213.842 30.9646 213.701 31.349C213.565 31.7287 213.497 32.1857 213.497 32.7201ZM225.528 38.2889C224.839 38.2889 224.229 38.1764 223.7 37.9514C223.175 37.7217 222.762 37.3748 222.462 36.9107C222.162 36.4467 222.012 35.8561 222.012 35.1389C222.012 34.5482 222.113 34.0443 222.315 33.6271C222.516 33.2053 222.797 32.8607 223.158 32.5936C223.519 32.3264 223.939 32.1225 224.417 31.9818C224.9 31.8412 225.42 31.7498 225.978 31.7076C226.583 31.6607 227.068 31.6045 227.433 31.5389C227.804 31.4686 228.071 31.3725 228.235 31.2506C228.399 31.124 228.481 30.9576 228.481 30.7514V30.7232C228.481 30.442 228.373 30.2264 228.158 30.0764C227.942 29.9264 227.665 29.8514 227.328 29.8514C226.958 29.8514 226.655 29.9334 226.421 30.0975C226.191 30.2568 226.053 30.5029 226.006 30.8357H222.434C222.481 30.1795 222.69 29.5748 223.06 29.0217C223.435 28.4639 223.981 28.0186 224.698 27.6857C225.415 27.3482 226.311 27.1795 227.384 27.1795C228.158 27.1795 228.851 27.2709 229.465 27.4537C230.079 27.6318 230.602 27.8826 231.033 28.2061C231.465 28.5248 231.793 28.8998 232.018 29.3311C232.247 29.7576 232.362 30.2217 232.362 30.7232V38.1201H228.734V36.6014H228.65C228.434 37.0045 228.172 37.3303 227.862 37.5787C227.558 37.8271 227.208 38.0076 226.815 38.1201C226.426 38.2326 225.997 38.2889 225.528 38.2889ZM226.794 35.842C227.089 35.842 227.365 35.7811 227.623 35.6592C227.886 35.5373 228.099 35.3615 228.263 35.1318C228.427 34.9021 228.509 34.6232 228.509 34.2951V33.3951C228.406 33.4373 228.296 33.4771 228.179 33.5146C228.066 33.5521 227.944 33.5873 227.813 33.6201C227.687 33.6529 227.551 33.6834 227.405 33.7115C227.265 33.7396 227.117 33.7654 226.962 33.7889C226.662 33.8357 226.416 33.9131 226.224 34.0209C226.037 34.124 225.896 34.2529 225.802 34.4076C225.713 34.5576 225.669 34.7264 225.669 34.9139C225.669 35.2139 225.774 35.4436 225.985 35.6029C226.196 35.7623 226.465 35.842 226.794 35.842ZM234.217 38.1201V27.3201H238.098V38.1201H234.217ZM236.157 26.1951C235.632 26.1951 235.182 26.0217 234.807 25.6748C234.432 25.3279 234.245 24.9107 234.245 24.4232C234.245 23.9357 234.432 23.5186 234.807 23.1717C235.182 22.8248 235.632 22.6514 236.157 22.6514C236.687 22.6514 237.137 22.8248 237.507 23.1717C237.882 23.5186 238.07 23.9357 238.07 24.4232C238.07 24.9107 237.882 25.3279 237.507 25.6748C237.137 26.0217 236.687 26.1951 236.157 26.1951ZM243.563 35.5607L243.591 30.9482H244.097L246.713 27.3201H251.072L246.685 32.9732H245.588L243.563 35.5607ZM240.076 38.1201V23.7201H243.957V38.1201H240.076ZM246.741 38.1201L244.266 33.8451L246.797 31.0889L251.185 38.1201H246.741Z" fill="#191919"/>
<path d="M24.1013 24.3625L16.8226 17.0087C16.0851 16.2512 15.2363 15.675 14.2763 15.28C13.3188 14.885 12.3126 14.6875 11.2576 14.6875C10.2026 14.6875 9.1963 14.885 8.2388 15.28C7.2813 15.675 6.42505 16.2512 5.67005 17.0087C4.87755 17.7987 4.2888 18.7175 3.9038 19.765C3.5163 20.81 3.3488 21.8775 3.4013 22.9675C3.0313 23.5825 2.7463 24.2375 2.5463 24.9325C2.3438 25.625 2.24255 26.3325 2.24255 27.055C2.24255 28.11 2.4438 29.1162 2.8463 30.0737C3.2513 31.0312 3.82255 31.8787 4.56005 32.6163L7.98755 35.9913L11.9176 39.895C12.1301 40.1225 12.3763 40.2888 12.6563 40.3938C12.9388 40.5013 13.2201 40.555 13.5001 40.555C13.7826 40.555 14.0638 40.5013 14.3438 40.3938C14.6263 40.2888 14.8726 40.1225 15.0826 39.895L22.9651 32.0387C23.4051 31.5988 23.6251 31.0662 23.6251 30.4412C23.6251 29.8187 23.4051 29.2875 22.9651 28.8475L22.8601 28.7425L24.1013 27.5275C24.5388 27.0875 24.7576 26.56 24.7576 25.945C24.7576 25.33 24.5388 24.8025 24.1013 24.3625ZM13.5001 38.3125L9.57005 34.3825L6.14255 31.0338C5.59755 30.4888 5.18505 29.8737 4.90505 29.1887C4.64005 28.4862 4.50755 27.775 4.50755 27.055C4.50755 26.3325 4.64005 25.6287 4.90505 24.9438C5.18505 24.2587 5.59755 23.6438 6.14255 23.0988C6.68755 22.5363 7.30755 22.1188 8.00255 21.8463C8.69755 21.5738 9.40505 21.4375 10.1251 21.4375C10.8451 21.4375 11.5526 21.5738 12.2476 21.8463C12.9426 22.1188 13.5626 22.5363 14.1076 23.0988L21.3826 30.43L13.5001 38.3125ZM15.6901 21.5162C14.9501 20.7612 14.1013 20.1863 13.1438 19.7913C12.1863 19.3938 11.1801 19.195 10.1251 19.195C9.40505 19.195 8.7063 19.2875 8.0288 19.4725C7.3513 19.6575 6.7138 19.935 6.1163 20.305C6.2588 19.9875 6.4213 19.6837 6.6038 19.3937C6.7888 19.1037 7.0138 18.8362 7.2788 18.5912C7.8238 18.0462 8.44255 17.6325 9.13505 17.35C9.83005 17.07 10.5376 16.93 11.2576 16.93C11.9801 16.93 12.6838 17.07 13.3688 17.35C14.0538 17.6325 14.6688 18.0462 15.2138 18.5912L22.4926 25.945L21.2776 27.16L15.6901 21.5162ZM10.1251 25.3675C10.6001 25.3675 11.0001 25.5338 11.3251 25.8663C11.6501 26.2013 11.8126 26.5975 11.8126 27.055C11.8126 27.53 11.6501 27.93 11.3251 28.255C11.0001 28.58 10.6001 28.7425 10.1251 28.7425C9.65005 28.7425 9.25005 28.58 8.92505 28.255C8.60005 27.93 8.43755 27.53 8.43755 27.055C8.43755 26.5975 8.60005 26.2013 8.92505 25.8663C9.25005 25.5338 9.65005 25.3675 10.1251 25.3675ZM10.1251 24.2575C9.35255 24.2575 8.6888 24.53 8.1338 25.075C7.5813 25.62 7.30505 26.28 7.30505 27.055C7.30505 27.8275 7.5813 28.4913 8.1338 29.0463C8.6888 29.5988 9.35255 29.875 10.1251 29.875C10.8976 29.875 11.5613 29.5988 12.1163 29.0463C12.6688 28.4913 12.9451 27.8275 12.9451 27.055C12.9451 26.28 12.6688 25.62 12.1163 25.075C11.5613 24.53 10.8976 24.2575 10.1251 24.2575Z" fill="#00D084"/>
</svg>
