<svg width="313" height="88" viewBox="0 0 313 88" fill="none" xmlns="http://www.w3.org/2000/svg">
<path d="M47.1688 39H42.95L47.7031 24.6H53.0469L57.8 39H53.5813L50.4312 28.5656H50.3187L47.1688 39ZM46.3812 33.3188H54.3125V36.2438H46.3812V33.3188ZM63.1244 32.925V39H59.2432V28.2H62.9275V30.2531H63.04C63.2744 29.5688 63.6869 29.032 64.2775 28.643C64.8729 28.2539 65.5666 28.0594 66.3588 28.0594C67.1229 28.0594 67.7861 28.2352 68.3486 28.5867C68.9158 28.9336 69.3541 29.4117 69.6635 30.0211C69.9775 30.6305 70.1322 31.3266 70.1275 32.1094V39H66.2463V32.925C66.251 32.3906 66.115 31.9711 65.8385 31.6664C65.5666 31.3617 65.1869 31.2094 64.6994 31.2094C64.3807 31.2094 64.1018 31.2797 63.8627 31.4203C63.6283 31.5563 63.4479 31.7531 63.3213 32.0109C63.1947 32.2641 63.1291 32.5687 63.1244 32.925ZM74.0193 43.05C73.574 43.05 73.1498 43.0148 72.7467 42.9445C72.3436 42.8789 71.9896 42.7875 71.685 42.6703L72.5287 39.9141C72.8475 40.0266 73.1381 40.0992 73.4006 40.132C73.6678 40.1648 73.8951 40.1461 74.0826 40.0758C74.2748 40.0055 74.4131 39.8719 74.4975 39.675L74.5818 39.4781L70.785 28.2H74.835L76.5787 35.6813H76.6912L78.4631 28.2H82.5412L78.6037 39.9C78.4068 40.4953 78.1209 41.0297 77.7459 41.5031C77.3756 41.9812 76.8881 42.3586 76.2834 42.6352C75.6787 42.9117 74.924 43.05 74.0193 43.05ZM94.5646 43.05V37.2281H94.5084C94.3584 37.5938 94.1428 37.9219 93.8615 38.2125C93.585 38.4984 93.2475 38.7258 92.849 38.8945C92.4553 39.0586 92.0053 39.1406 91.499 39.1406C90.7303 39.1406 90.0225 38.9391 89.3756 38.5359C88.7334 38.1328 88.2178 37.5211 87.8287 36.7008C87.4443 35.8805 87.2521 34.8469 87.2521 33.6C87.2521 32.2969 87.4537 31.2375 87.8568 30.4219C88.2646 29.6062 88.7896 29.0086 89.4318 28.6289C90.0787 28.2492 90.7584 28.0594 91.4709 28.0594C92.0053 28.0594 92.474 28.1531 92.8771 28.3406C93.2803 28.5234 93.6178 28.7695 93.8896 29.0789C94.1615 29.3836 94.3678 29.7188 94.5084 30.0844H94.5928V28.2H98.4459V43.05H94.5646ZM92.9334 36.1594C93.2896 36.1594 93.5943 36.0563 93.8475 35.85C94.1053 35.6391 94.3021 35.3437 94.4381 34.9641C94.5787 34.5797 94.649 34.125 94.649 33.6C94.649 33.0656 94.5787 32.6086 94.4381 32.2289C94.3021 31.8445 94.1053 31.5516 93.8475 31.35C93.5943 31.1437 93.2896 31.0406 92.9334 31.0406C92.5771 31.0406 92.2725 31.1437 92.0193 31.35C91.7709 31.5516 91.5787 31.8445 91.4428 32.2289C91.3115 32.6086 91.2459 33.0656 91.2459 33.6C91.2459 34.1344 91.3115 34.5938 91.4428 34.9781C91.5787 35.3578 91.7709 35.6508 92.0193 35.857C92.2725 36.0586 92.5771 36.1594 92.9334 36.1594ZM107.412 34.275V28.2H111.294V39H107.609V36.9469H107.497C107.262 37.6359 106.852 38.175 106.266 38.5641C105.68 38.9484 104.984 39.1406 104.178 39.1406C103.423 39.1406 102.762 38.9672 102.195 38.6203C101.633 38.2734 101.195 37.7953 100.88 37.1859C100.571 36.5766 100.414 35.8781 100.409 35.0906V28.2H104.291V34.275C104.295 34.8094 104.431 35.2289 104.698 35.5336C104.97 35.8383 105.35 35.9906 105.837 35.9906C106.161 35.9906 106.44 35.9227 106.674 35.7867C106.913 35.6461 107.096 35.4492 107.223 35.1961C107.354 34.9383 107.417 34.6313 107.412 34.275ZM118.443 39.1969C117.29 39.1969 116.296 38.9766 115.462 38.5359C114.632 38.0906 113.992 37.4531 113.542 36.6234C113.097 35.7891 112.874 34.7906 112.874 33.6281C112.874 32.5125 113.099 31.5375 113.549 30.7031C113.999 29.8688 114.634 29.2195 115.454 28.7555C116.275 28.2914 117.243 28.0594 118.358 28.0594C119.174 28.0594 119.912 28.1859 120.573 28.4391C121.234 28.6922 121.799 29.0602 122.268 29.543C122.737 30.0211 123.097 30.6023 123.351 31.2867C123.604 31.9711 123.73 32.7422 123.73 33.6V34.5H114.083V32.3625H120.158C120.154 32.0531 120.074 31.7813 119.919 31.5469C119.769 31.3078 119.565 31.1227 119.308 30.9914C119.054 30.8555 118.766 30.7875 118.443 30.7875C118.129 30.7875 117.84 30.8555 117.578 30.9914C117.315 31.1227 117.104 31.3055 116.945 31.5398C116.79 31.7742 116.708 32.0484 116.699 32.3625V34.6688C116.699 35.0156 116.772 35.325 116.917 35.5969C117.062 35.8688 117.271 36.082 117.543 36.2367C117.815 36.3914 118.143 36.4688 118.527 36.4688C118.794 36.4688 119.038 36.4313 119.258 36.3562C119.483 36.2813 119.676 36.1734 119.835 36.0328C119.994 35.8875 120.112 35.7141 120.187 35.5125H123.73C123.608 36.2625 123.32 36.9141 122.865 37.4672C122.411 38.0156 121.808 38.4422 121.058 38.7469C120.313 39.0469 119.441 39.1969 118.443 39.1969ZM135.186 31.7156H131.614C131.595 31.4953 131.518 31.3055 131.382 31.1461C131.246 30.9867 131.07 30.8648 130.855 30.7805C130.644 30.6914 130.409 30.6469 130.152 30.6469C129.819 30.6469 129.533 30.7078 129.294 30.8297C129.055 30.9516 128.937 31.125 128.942 31.35C128.937 31.5094 129.005 31.657 129.146 31.793C129.291 31.9289 129.57 32.0344 129.983 32.1094L132.177 32.5031C133.283 32.7047 134.105 33.0445 134.645 33.5227C135.188 33.9961 135.462 34.6313 135.467 35.4281C135.462 36.1969 135.233 36.8648 134.778 37.432C134.328 37.9945 133.712 38.4305 132.929 38.7398C132.151 39.0445 131.262 39.1969 130.264 39.1969C128.614 39.1969 127.323 38.8594 126.39 38.1844C125.462 37.5094 124.944 36.6188 124.836 35.5125H128.689C128.741 35.8547 128.909 36.1195 129.195 36.307C129.486 36.4898 129.852 36.5813 130.292 36.5813C130.648 36.5813 130.941 36.5203 131.171 36.3984C131.405 36.2766 131.525 36.1031 131.53 35.8781C131.525 35.6719 131.422 35.5078 131.22 35.3859C131.023 35.2641 130.714 35.1656 130.292 35.0906L128.38 34.7531C127.278 34.5609 126.453 34.1953 125.905 33.6562C125.356 33.1172 125.084 32.4234 125.089 31.575C125.084 30.825 125.281 30.1898 125.68 29.6695C126.083 29.1445 126.657 28.7461 127.402 28.4742C128.152 28.1977 129.041 28.0594 130.067 28.0594C131.628 28.0594 132.859 28.3828 133.759 29.0297C134.663 29.6766 135.139 30.5719 135.186 31.7156ZM143.395 28.2V31.0125H136.279V28.2H143.395ZM137.657 25.6125H141.539V35.5266C141.539 35.6766 141.564 35.8031 141.616 35.9063C141.668 36.0047 141.747 36.0797 141.855 36.1312C141.963 36.1781 142.101 36.2016 142.27 36.2016C142.387 36.2016 142.523 36.1875 142.678 36.1594C142.837 36.1313 142.954 36.1078 143.029 36.0891L143.592 38.8172C143.418 38.8688 143.17 38.932 142.846 39.007C142.528 39.082 142.148 39.1312 141.707 39.1547C140.817 39.2016 140.069 39.1102 139.464 38.8805C138.86 38.6461 138.405 38.2781 138.1 37.7766C137.796 37.275 137.648 36.6469 137.657 35.8922V25.6125ZM144.979 39V28.2H148.86V39H144.979ZM146.919 27.075C146.394 27.075 145.944 26.9016 145.569 26.5547C145.194 26.2078 145.007 25.7906 145.007 25.3031C145.007 24.8156 145.194 24.3984 145.569 24.0516C145.944 23.7047 146.394 23.5313 146.919 23.5313C147.449 23.5313 147.899 23.7047 148.269 24.0516C148.644 24.3984 148.832 24.8156 148.832 25.3031C148.832 25.7906 148.644 26.2078 148.269 26.5547C147.899 26.9016 147.449 27.075 146.919 27.075ZM156.041 39.1969C154.869 39.1969 153.866 38.9648 153.031 38.5008C152.197 38.032 151.557 37.3805 151.112 36.5461C150.666 35.707 150.444 34.7344 150.444 33.6281C150.444 32.5219 150.666 31.5516 151.112 30.7172C151.557 29.8781 152.197 29.2266 153.031 28.7625C153.866 28.2938 154.869 28.0594 156.041 28.0594C157.212 28.0594 158.216 28.2938 159.05 28.7625C159.884 29.2266 160.524 29.8781 160.97 30.7172C161.415 31.5516 161.637 32.5219 161.637 33.6281C161.637 34.7344 161.415 35.707 160.97 36.5461C160.524 37.3805 159.884 38.032 159.05 38.5008C158.216 38.9648 157.212 39.1969 156.041 39.1969ZM156.069 36.3281C156.397 36.3281 156.68 36.218 156.92 35.9977C157.159 35.7773 157.344 35.4633 157.475 35.0555C157.606 34.6477 157.672 34.1625 157.672 33.6C157.672 33.0328 157.606 32.5477 157.475 32.1445C157.344 31.7367 157.159 31.4227 156.92 31.2023C156.68 30.982 156.397 30.8719 156.069 30.8719C155.722 30.8719 155.424 30.982 155.176 31.2023C154.927 31.4227 154.737 31.7367 154.606 32.1445C154.475 32.5477 154.409 33.0328 154.409 33.6C154.409 34.1625 154.475 34.6477 154.606 35.0555C154.737 35.4633 154.927 35.7773 155.176 35.9977C155.424 36.218 155.722 36.3281 156.069 36.3281ZM167.094 32.925V39H163.212V28.2H166.897V30.2531H167.009C167.244 29.5688 167.656 29.032 168.247 28.643C168.842 28.2539 169.536 28.0594 170.328 28.0594C171.092 28.0594 171.755 28.2352 172.318 28.5867C172.885 28.9336 173.323 29.4117 173.633 30.0211C173.947 30.6305 174.102 31.3266 174.097 32.1094V39H170.216V32.925C170.22 32.3906 170.084 31.9711 169.808 31.6664C169.536 31.3617 169.156 31.2094 168.669 31.2094C168.35 31.2094 168.071 31.2797 167.832 31.4203C167.598 31.5563 167.417 31.7531 167.291 32.0109C167.164 32.2641 167.098 32.5687 167.094 32.925ZM185.885 31.7156H182.313C182.294 31.4953 182.217 31.3055 182.081 31.1461C181.945 30.9867 181.769 30.8648 181.554 30.7805C181.343 30.6914 181.108 30.6469 180.85 30.6469C180.518 30.6469 180.232 30.7078 179.993 30.8297C179.754 30.9516 179.636 31.125 179.641 31.35C179.636 31.5094 179.704 31.657 179.845 31.793C179.99 31.9289 180.269 32.0344 180.682 32.1094L182.875 32.5031C183.982 32.7047 184.804 33.0445 185.343 33.5227C185.887 33.9961 186.161 34.6313 186.166 35.4281C186.161 36.1969 185.932 36.8648 185.477 37.432C185.027 37.9945 184.411 38.4305 183.628 38.7398C182.85 39.0445 181.961 39.1969 180.963 39.1969C179.313 39.1969 178.021 38.8594 177.089 38.1844C176.161 37.5094 175.643 36.6188 175.535 35.5125H179.388C179.439 35.8547 179.608 36.1195 179.894 36.307C180.185 36.4898 180.55 36.5813 180.991 36.5813C181.347 36.5813 181.64 36.5203 181.87 36.3984C182.104 36.2766 182.224 36.1031 182.229 35.8781C182.224 35.6719 182.121 35.5078 181.919 35.3859C181.722 35.2641 181.413 35.1656 180.991 35.0906L179.079 34.7531C177.977 34.5609 177.152 34.1953 176.604 33.6562C176.055 33.1172 175.783 32.4234 175.788 31.575C175.783 30.825 175.98 30.1898 176.379 29.6695C176.782 29.1445 177.356 28.7461 178.101 28.4742C178.851 28.1977 179.739 28.0594 180.766 28.0594C182.327 28.0594 183.557 28.3828 184.457 29.0297C185.362 29.6766 185.838 30.5719 185.885 31.7156ZM190.494 34.5V34.1625C190.494 33.3891 190.555 32.7727 190.677 32.3133C190.798 31.8539 190.979 31.4859 191.218 31.2094C191.457 30.9281 191.75 30.675 192.097 30.45C192.397 30.2531 192.664 30.0633 192.898 29.8805C193.137 29.6977 193.325 29.5031 193.461 29.2969C193.602 29.0906 193.672 28.8563 193.672 28.5938C193.672 28.3594 193.616 28.1531 193.503 27.975C193.391 27.7969 193.238 27.6586 193.046 27.5602C192.854 27.4617 192.641 27.4125 192.406 27.4125C192.153 27.4125 191.919 27.4711 191.703 27.5883C191.492 27.7055 191.321 27.8672 191.19 28.0734C191.063 28.2797 191 28.5187 191 28.7906H187.4C187.409 27.7594 187.644 26.9227 188.103 26.2805C188.562 25.6336 189.172 25.1602 189.931 24.8602C190.691 24.5555 191.525 24.4031 192.434 24.4031C193.437 24.4031 194.333 24.5508 195.12 24.8461C195.908 25.1367 196.529 25.5773 196.984 26.168C197.438 26.7539 197.666 27.4875 197.666 28.3688C197.666 28.9359 197.567 29.4352 197.37 29.8664C197.178 30.293 196.909 30.6703 196.562 30.9984C196.22 31.3219 195.819 31.6172 195.359 31.8844C195.022 32.0812 194.738 32.2852 194.509 32.4961C194.279 32.7023 194.105 32.9391 193.988 33.2062C193.871 33.4687 193.812 33.7875 193.812 34.1625V34.5H190.494ZM192.209 39.225C191.666 39.225 191.199 39.0352 190.81 38.6555C190.426 38.2711 190.236 37.8047 190.241 37.2562C190.236 36.7219 190.426 36.2648 190.81 35.8852C191.199 35.5055 191.666 35.3156 192.209 35.3156C192.725 35.3156 193.18 35.5055 193.573 35.8852C193.972 36.2648 194.173 36.7219 194.178 37.2562C194.173 37.6219 194.077 37.9547 193.89 38.2547C193.707 38.55 193.468 38.7867 193.173 38.9648C192.877 39.1383 192.556 39.225 192.209 39.225ZM210.157 39.225C209.116 39.225 208.218 38.9953 207.464 38.5359C206.714 38.0719 206.135 37.425 205.727 36.5953C205.324 35.7609 205.122 34.7906 205.122 33.6844C205.122 32.5781 205.324 31.6031 205.727 30.7594C206.135 29.9109 206.702 29.25 207.429 28.7766C208.16 28.2984 209.013 28.0594 209.988 28.0594C210.55 28.0594 211.106 28.1531 211.654 28.3406C212.203 28.5281 212.702 28.8328 213.152 29.2547C213.602 29.6719 213.961 30.225 214.228 30.9141C214.495 31.6031 214.629 32.4516 214.629 33.4594V34.1625H206.304V32.7281H212.941C212.941 32.1187 212.819 31.575 212.575 31.0969C212.336 30.6187 211.994 30.2414 211.549 29.9648C211.108 29.6883 210.588 29.55 209.988 29.55C209.327 29.55 208.755 29.7141 208.272 30.0422C207.794 30.3656 207.426 30.7875 207.168 31.3078C206.911 31.8281 206.782 32.3859 206.782 32.9813V33.9375C206.782 34.7531 206.922 35.4445 207.204 36.0117C207.489 36.5742 207.886 37.0031 208.392 37.2984C208.898 37.5891 209.486 37.7344 210.157 37.7344C210.593 37.7344 210.986 37.6734 211.338 37.5516C211.694 37.425 212.001 37.2375 212.259 36.9891C212.517 36.7359 212.716 36.4219 212.857 36.0469L214.46 36.4969C214.291 37.0406 214.007 37.5188 213.609 37.9313C213.211 38.3391 212.718 38.6578 212.132 38.8875C211.546 39.1125 210.888 39.225 210.157 39.225ZM218.1 28.2L220.688 32.6156L223.275 28.2H225.188L221.7 33.6L225.188 39H223.275L220.688 34.8094L218.1 39H216.188L219.619 33.6L216.188 28.2H218.1ZM227.555 43.05V28.2H229.159V29.9156H229.355C229.477 29.7281 229.646 29.4891 229.862 29.1984C230.082 28.9031 230.396 28.6406 230.804 28.4109C231.216 28.1766 231.774 28.0594 232.477 28.0594C233.387 28.0594 234.188 28.2867 234.882 28.7414C235.576 29.1961 236.117 29.8406 236.506 30.675C236.895 31.5094 237.09 32.4937 237.09 33.6281C237.09 34.7719 236.895 35.7633 236.506 36.6023C236.117 37.4367 235.578 38.0836 234.889 38.543C234.2 38.9977 233.405 39.225 232.505 39.225C231.812 39.225 231.256 39.1102 230.839 38.8805C230.422 38.6461 230.101 38.3812 229.876 38.0859C229.651 37.7859 229.477 37.5375 229.355 37.3406H229.215V43.05H227.555ZM229.187 33.6C229.187 34.4156 229.306 35.1352 229.545 35.7586C229.784 36.3773 230.134 36.8625 230.593 37.2141C231.052 37.5609 231.615 37.7344 232.28 37.7344C232.974 37.7344 233.553 37.5516 234.017 37.1859C234.486 36.8156 234.837 36.3188 235.072 35.6953C235.311 35.0672 235.43 34.3688 235.43 33.6C235.43 32.8406 235.313 32.1563 235.079 31.5469C234.849 30.9328 234.5 30.4477 234.031 30.0914C233.567 29.7305 232.984 29.55 232.28 29.55C231.605 29.55 231.038 29.7211 230.579 30.0633C230.12 30.4008 229.773 30.8742 229.538 31.4836C229.304 32.0883 229.187 32.7937 229.187 33.6ZM244.149 39.225C243.109 39.225 242.211 38.9953 241.456 38.5359C240.706 38.0719 240.127 37.425 239.72 36.5953C239.316 35.7609 239.115 34.7906 239.115 33.6844C239.115 32.5781 239.316 31.6031 239.72 30.7594C240.127 29.9109 240.695 29.25 241.421 28.7766C242.152 28.2984 243.005 28.0594 243.98 28.0594C244.543 28.0594 245.098 28.1531 245.647 28.3406C246.195 28.5281 246.695 28.8328 247.145 29.2547C247.595 29.6719 247.953 30.225 248.22 30.9141C248.487 31.6031 248.621 32.4516 248.621 33.4594V34.1625H240.296V32.7281H246.934C246.934 32.1187 246.812 31.575 246.568 31.0969C246.329 30.6187 245.987 30.2414 245.541 29.9648C245.101 29.6883 244.58 29.55 243.98 29.55C243.32 29.55 242.748 29.7141 242.265 30.0422C241.787 30.3656 241.419 30.7875 241.161 31.3078C240.903 31.8281 240.774 32.3859 240.774 32.9813V33.9375C240.774 34.7531 240.915 35.4445 241.196 36.0117C241.482 36.5742 241.878 37.0031 242.384 37.2984C242.891 37.5891 243.479 37.7344 244.149 37.7344C244.585 37.7344 244.979 37.6734 245.33 37.5516C245.687 37.425 245.994 37.2375 246.252 36.9891C246.509 36.7359 246.709 36.4219 246.849 36.0469L248.452 36.4969C248.284 37.0406 248 37.5188 247.602 37.9313C247.203 38.3391 246.711 38.6578 246.125 38.8875C245.539 39.1125 244.88 39.225 244.149 39.225ZM251.145 39V28.2H252.748V29.8313H252.861C253.058 29.2969 253.414 28.8633 253.93 28.5305C254.445 28.1977 255.027 28.0312 255.673 28.0312C255.795 28.0312 255.948 28.0336 256.13 28.0383C256.313 28.043 256.452 28.05 256.545 28.0594V29.7469C256.489 29.7328 256.36 29.7117 256.159 29.6836C255.962 29.6508 255.753 29.6344 255.533 29.6344C255.008 29.6344 254.539 29.7445 254.127 29.9648C253.719 30.1805 253.395 30.4805 253.156 30.8648C252.922 31.2445 252.805 31.6781 252.805 32.1656V39H251.145ZM263.886 28.2V29.6062H258.289V28.2H263.886ZM259.92 25.6125H261.58V35.9063C261.58 36.375 261.648 36.7266 261.784 36.9609C261.924 37.1906 262.102 37.3453 262.318 37.425C262.538 37.5 262.77 37.5375 263.014 37.5375C263.197 37.5375 263.347 37.5281 263.464 37.5094C263.581 37.4859 263.675 37.4672 263.745 37.4531L264.083 38.9438C263.97 38.9859 263.813 39.0281 263.612 39.0703C263.41 39.1172 263.155 39.1406 262.845 39.1406C262.377 39.1406 261.917 39.0398 261.467 38.8383C261.022 38.6367 260.652 38.3297 260.356 37.9172C260.066 37.5047 259.92 36.9844 259.92 36.3562V25.6125ZM273.839 30.6188L272.348 31.0406C272.254 30.7922 272.116 30.5508 271.933 30.3164C271.755 30.0773 271.511 29.8805 271.202 29.7258C270.893 29.5711 270.496 29.4937 270.014 29.4937C269.353 29.4937 268.802 29.6461 268.361 29.9508C267.925 30.2508 267.707 30.6328 267.707 31.0969C267.707 31.5094 267.857 31.8352 268.157 32.0742C268.457 32.3133 268.926 32.5125 269.564 32.6719L271.167 33.0656C272.132 33.3 272.852 33.6586 273.325 34.1414C273.799 34.6195 274.036 35.2359 274.036 35.9906C274.036 36.6094 273.857 37.1625 273.501 37.65C273.15 38.1375 272.657 38.5219 272.025 38.8031C271.392 39.0844 270.656 39.225 269.817 39.225C268.715 39.225 267.804 38.9859 267.082 38.5078C266.36 38.0297 265.903 37.3312 265.711 36.4125L267.286 36.0188C267.436 36.6 267.719 37.0359 268.136 37.3266C268.558 37.6172 269.109 37.7625 269.789 37.7625C270.562 37.7625 271.176 37.5984 271.631 37.2703C272.09 36.9375 272.32 36.5391 272.32 36.075C272.32 35.7 272.189 35.3859 271.926 35.1328C271.664 34.875 271.261 34.6828 270.717 34.5562L268.917 34.1344C267.928 33.9 267.201 33.5367 266.737 33.0445C266.278 32.5477 266.048 31.9266 266.048 31.1813C266.048 30.5719 266.219 30.0328 266.561 29.5641C266.908 29.0953 267.379 28.7273 267.975 28.4602C268.575 28.193 269.254 28.0594 270.014 28.0594C271.082 28.0594 271.921 28.2938 272.531 28.7625C273.145 29.2313 273.581 29.85 273.839 30.6188ZM285.28 39.2531C284.596 39.2531 283.975 39.1242 283.417 38.8664C282.859 38.6039 282.416 38.2266 282.088 37.7344C281.76 37.2375 281.596 36.6375 281.596 35.9344C281.596 35.3156 281.718 34.8141 281.962 34.4297C282.205 34.0406 282.531 33.7359 282.939 33.5156C283.347 33.2953 283.797 33.1312 284.289 33.0234C284.786 32.9109 285.285 32.8219 285.787 32.7563C286.443 32.6719 286.975 32.6086 287.383 32.5664C287.795 32.5195 288.095 32.4422 288.283 32.3344C288.475 32.2266 288.571 32.0391 288.571 31.7719V31.7156C288.571 31.0219 288.381 30.4828 288.001 30.0984C287.626 29.7141 287.057 29.5219 286.293 29.5219C285.501 29.5219 284.879 29.6953 284.429 30.0422C283.979 30.3891 283.663 30.7594 283.48 31.1531L281.905 30.5906C282.187 29.9344 282.562 29.4234 283.03 29.0578C283.504 28.6875 284.019 28.4297 284.577 28.2844C285.14 28.1344 285.693 28.0594 286.237 28.0594C286.583 28.0594 286.982 28.1016 287.432 28.1859C287.887 28.2656 288.325 28.432 288.747 28.6852C289.173 28.9383 289.527 29.3203 289.808 29.8313C290.09 30.3422 290.23 31.0266 290.23 31.8844V39H288.571V37.5375H288.487C288.374 37.7719 288.187 38.0227 287.924 38.2898C287.662 38.557 287.312 38.7844 286.876 38.9719C286.44 39.1594 285.908 39.2531 285.28 39.2531ZM285.533 37.7625C286.19 37.7625 286.743 37.6336 287.193 37.3758C287.647 37.118 287.99 36.7852 288.219 36.3773C288.454 35.9695 288.571 35.5406 288.571 35.0906V33.5719C288.501 33.6562 288.346 33.7336 288.107 33.8039C287.872 33.8695 287.601 33.9281 287.291 33.9797C286.987 34.0266 286.689 34.0688 286.398 34.1063C286.112 34.1391 285.88 34.1672 285.702 34.1906C285.271 34.2469 284.868 34.3383 284.493 34.4648C284.122 34.5867 283.822 34.7719 283.593 35.0203C283.368 35.2641 283.255 35.5969 283.255 36.0188C283.255 36.5953 283.469 37.0312 283.895 37.3266C284.326 37.6172 284.872 37.7625 285.533 37.7625ZM293.259 39V28.2H294.862V29.8313H294.975C295.171 29.2969 295.528 28.8633 296.043 28.5305C296.559 28.1977 297.14 28.0312 297.787 28.0312C297.909 28.0312 298.061 28.0336 298.244 28.0383C298.427 28.043 298.565 28.05 298.659 28.0594V29.7469C298.603 29.7328 298.474 29.7117 298.272 29.6836C298.075 29.6508 297.867 29.6344 297.646 29.6344C297.121 29.6344 296.653 29.7445 296.24 29.9648C295.832 30.1805 295.509 30.4805 295.27 30.8648C295.036 31.2445 294.918 31.6781 294.918 32.1656V39H293.259ZM304.825 39.225C303.785 39.225 302.887 38.9953 302.132 38.5359C301.382 38.0719 300.804 37.425 300.396 36.5953C299.993 35.7609 299.791 34.7906 299.791 33.6844C299.791 32.5781 299.993 31.6031 300.396 30.7594C300.804 29.9109 301.371 29.25 302.097 28.7766C302.829 28.2984 303.682 28.0594 304.657 28.0594C305.219 28.0594 305.775 28.1531 306.323 28.3406C306.871 28.5281 307.371 28.8328 307.821 29.2547C308.271 29.6719 308.629 30.225 308.896 30.9141C309.164 31.6031 309.297 32.4516 309.297 33.4594V34.1625H300.972V32.7281H307.61C307.61 32.1187 307.488 31.575 307.244 31.0969C307.005 30.6187 306.663 30.2414 306.218 29.9648C305.777 29.6883 305.257 29.55 304.657 29.55C303.996 29.55 303.424 29.7141 302.941 30.0422C302.463 30.3656 302.095 30.7875 301.837 31.3078C301.579 31.8281 301.45 32.3859 301.45 32.9813V33.9375C301.45 34.7531 301.591 35.4445 301.872 36.0117C302.158 36.5742 302.554 37.0031 303.061 37.2984C303.567 37.5891 304.155 37.7344 304.825 37.7344C305.261 37.7344 305.655 37.6734 306.007 37.5516C306.363 37.425 306.67 37.2375 306.928 36.9891C307.186 36.7359 307.385 36.4219 307.525 36.0469L309.129 36.4969C308.96 37.0406 308.676 37.5188 308.278 37.9313C307.879 38.3391 307.387 38.6578 306.801 38.8875C306.215 39.1125 305.557 39.225 304.825 39.225Z" fill="#191919"/>
<path d="M44.0187 62.9902V52.1902H45.6219V53.8215H45.7344C45.9312 53.2871 46.2875 52.8535 46.8031 52.5207C47.3188 52.1879 47.9 52.0215 48.5469 52.0215C48.6687 52.0215 48.8211 52.0238 49.0039 52.0285C49.1867 52.0332 49.325 52.0402 49.4188 52.0496V53.7371C49.3625 53.723 49.2336 53.702 49.032 53.6738C48.8352 53.641 48.6266 53.6246 48.4063 53.6246C47.8813 53.6246 47.4125 53.7348 47 53.9551C46.5922 54.1707 46.2687 54.4707 46.0297 54.8551C45.7953 55.2348 45.6781 55.6684 45.6781 56.1559V62.9902H44.0187ZM55.5852 63.2152C54.5445 63.2152 53.6469 62.9855 52.8922 62.5262C52.1422 62.0621 51.5633 61.4152 51.1555 60.5855C50.7523 59.7512 50.5508 58.7809 50.5508 57.6746C50.5508 56.5684 50.7523 55.5934 51.1555 54.7496C51.5633 53.9012 52.1305 53.2402 52.857 52.7668C53.5883 52.2887 54.4414 52.0496 55.4164 52.0496C55.9789 52.0496 56.5344 52.1434 57.0828 52.3309C57.6312 52.5184 58.1305 52.823 58.5805 53.2449C59.0305 53.6621 59.3891 54.2152 59.6563 54.9043C59.9234 55.5934 60.057 56.4418 60.057 57.4496V58.1527H51.732V56.7184H58.3695C58.3695 56.109 58.2477 55.5652 58.0039 55.0871C57.7648 54.609 57.4227 54.2316 56.9773 53.9551C56.5367 53.6785 56.0164 53.5402 55.4164 53.5402C54.7555 53.5402 54.1836 53.7043 53.7008 54.0324C53.2227 54.3559 52.8547 54.7777 52.5969 55.298C52.3391 55.8184 52.2102 56.3762 52.2102 56.9715V57.9277C52.2102 58.7434 52.3508 59.4348 52.632 60.002C52.918 60.5645 53.3141 60.9934 53.8203 61.2887C54.3266 61.5793 54.9148 61.7246 55.5852 61.7246C56.0211 61.7246 56.4148 61.6637 56.7664 61.5418C57.1227 61.4152 57.4297 61.2277 57.6875 60.9793C57.9453 60.7262 58.1445 60.4121 58.2852 60.0371L59.8883 60.4871C59.7195 61.0309 59.4359 61.509 59.0375 61.9215C58.6391 62.3293 58.1469 62.648 57.5609 62.8777C56.975 63.1027 56.3164 63.2152 55.5852 63.2152ZM65.7594 63.2434C65.075 63.2434 64.4539 63.1145 63.8961 62.8566C63.3383 62.5941 62.8953 62.2168 62.5672 61.7246C62.2391 61.2277 62.075 60.6277 62.075 59.9246C62.075 59.3059 62.1969 58.8043 62.4406 58.4199C62.6844 58.0309 63.0102 57.7262 63.418 57.5059C63.8258 57.2855 64.2758 57.1215 64.768 57.0137C65.2648 56.9012 65.7641 56.8121 66.2656 56.7465C66.9219 56.6621 67.4539 56.5988 67.8617 56.5566C68.2742 56.5098 68.5742 56.4324 68.7617 56.3246C68.9539 56.2168 69.05 56.0293 69.05 55.7621V55.7059C69.05 55.0121 68.8602 54.473 68.4805 54.0887C68.1055 53.7043 67.5359 53.5121 66.7719 53.5121C65.9797 53.5121 65.3586 53.6855 64.9086 54.0324C64.4586 54.3793 64.1422 54.7496 63.9594 55.1434L62.3844 54.5809C62.6656 53.9246 63.0406 53.4137 63.5094 53.048C63.9828 52.6777 64.4984 52.4199 65.0562 52.2746C65.6187 52.1246 66.1719 52.0496 66.7156 52.0496C67.0625 52.0496 67.4609 52.0918 67.9109 52.1762C68.3656 52.2559 68.8039 52.4223 69.2258 52.6754C69.6523 52.9285 70.0062 53.3105 70.2875 53.8215C70.5688 54.3324 70.7094 55.0168 70.7094 55.8746V62.9902H69.05V61.5277H68.9656C68.8531 61.7621 68.6656 62.0129 68.4031 62.2801C68.1406 62.5473 67.7914 62.7746 67.3555 62.9621C66.9195 63.1496 66.3875 63.2434 65.7594 63.2434ZM66.0125 61.7527C66.6687 61.7527 67.2219 61.6238 67.6719 61.366C68.1266 61.1082 68.4687 60.7754 68.6984 60.3676C68.9328 59.9598 69.05 59.5309 69.05 59.0809V57.5621C68.9797 57.6465 68.825 57.7238 68.5859 57.7941C68.3516 57.8598 68.0797 57.9184 67.7703 57.9699C67.4656 58.0168 67.168 58.059 66.8773 58.0965C66.5914 58.1293 66.3594 58.1574 66.1813 58.1809C65.75 58.2371 65.3469 58.3285 64.9719 58.4551C64.6016 58.577 64.3016 58.7621 64.0719 59.0105C63.8469 59.2543 63.7344 59.5871 63.7344 60.009C63.7344 60.5855 63.9477 61.0215 64.3742 61.3168C64.8055 61.6074 65.3516 61.7527 66.0125 61.7527ZM77.8162 63.2152C76.9162 63.2152 76.1217 62.9879 75.4326 62.5332C74.7436 62.0738 74.2045 61.427 73.8154 60.5926C73.4264 59.7535 73.2318 58.7621 73.2318 57.6184C73.2318 56.484 73.4264 55.4996 73.8154 54.6652C74.2045 53.8309 74.7459 53.1863 75.4396 52.7316C76.1334 52.277 76.935 52.0496 77.8443 52.0496C78.5475 52.0496 79.1029 52.1668 79.5107 52.4012C79.9232 52.6309 80.2373 52.8934 80.4529 53.1887C80.6732 53.4793 80.8443 53.7184 80.9662 53.9059H81.1068V48.5902H82.7662V62.9902H81.1631V61.3309H80.9662C80.8443 61.5277 80.6709 61.7762 80.4459 62.0762C80.2209 62.3715 79.8998 62.6363 79.4826 62.8707C79.0654 63.1004 78.51 63.2152 77.8162 63.2152ZM78.0412 61.7246C78.7068 61.7246 79.2693 61.5512 79.7287 61.2043C80.1881 60.8527 80.5373 60.3676 80.7764 59.7488C81.0154 59.1254 81.135 58.4059 81.135 57.5902C81.135 56.784 81.0178 56.0785 80.7834 55.4738C80.549 54.8645 80.2021 54.391 79.7428 54.0535C79.2834 53.7113 78.7162 53.5402 78.0412 53.5402C77.3381 53.5402 76.7521 53.7207 76.2834 54.0816C75.8193 54.4379 75.4701 54.923 75.2357 55.5371C75.0061 56.1465 74.8912 56.8309 74.8912 57.5902C74.8912 58.359 75.0084 59.0574 75.2428 59.6855C75.4818 60.309 75.8334 60.8059 76.2975 61.1762C76.7662 61.5418 77.3475 61.7246 78.0412 61.7246ZM87.1045 67.0402C86.8232 67.0402 86.5725 67.0168 86.3521 66.9699C86.1318 66.9277 85.9795 66.8855 85.8951 66.8434L86.317 65.3809C86.7201 65.484 87.0764 65.5215 87.3857 65.4934C87.6951 65.4652 87.9693 65.327 88.2084 65.0785C88.4521 64.8348 88.6748 64.4387 88.8764 63.8902L89.1857 63.0465L85.192 52.1902H86.992L89.9732 60.7965H90.0857L93.067 52.1902H94.867L90.2826 64.5652C90.0764 65.123 89.8209 65.5848 89.5162 65.9504C89.2115 66.3207 88.8576 66.5949 88.4545 66.773C88.0561 66.9512 87.6061 67.0402 87.1045 67.0402Z" fill="#191919"/>
<path d="M14 37.3048C15.23 37.3048 16.285 37.7436 17.165 38.6211C18.0425 39.5011 18.4813 40.5561 18.4813 41.7861C18.4813 42.7361 17.9188 43.7111 16.7938 44.7111C15.6688 45.7136 15.1063 46.6198 15.1063 47.4298H12.8938C12.8938 46.6198 13.0688 45.9248 13.4188 45.3448C13.7713 44.7648 14.1588 44.3436 14.5813 44.0811C15.0013 43.8161 15.3875 43.4911 15.74 43.1061C16.0925 42.7186 16.2688 42.2786 16.2688 41.7861C16.2688 41.1886 16.04 40.6698 15.5826 40.2298C15.125 39.7898 14.5975 39.5698 14 39.5698C13.4025 39.5698 12.875 39.7898 12.4175 40.2298C11.96 40.6698 11.7313 41.1886 11.7313 41.7861H9.5188C9.5188 40.5561 9.95755 39.5011 10.835 38.6211C11.715 37.7436 12.77 37.3048 14 37.3048ZM14 53.0698C16.46 53.0698 18.5788 52.1823 20.3563 50.4073C22.1313 48.6323 23.0188 46.5148 23.0188 44.0548C23.0188 41.5923 22.1313 39.4736 20.3563 37.6986C18.5788 35.9236 16.46 35.0361 14 35.0361C11.54 35.0361 9.4213 35.9236 7.6438 37.6986C5.8688 39.4736 4.9813 41.5923 4.9813 44.0548C4.9813 46.5148 5.8688 48.6323 7.6438 50.4073C9.4213 52.1823 11.54 53.0698 14 53.0698ZM14 32.8198C17.095 32.8198 19.74 33.9186 21.935 36.1161C24.1325 38.3136 25.2313 40.9598 25.2313 44.0548C25.2313 47.1473 24.1325 49.7923 21.935 51.9898C19.74 54.1873 17.095 55.2861 14 55.2861C10.9075 55.2861 8.26255 54.1873 6.06505 51.9898C3.86755 49.7923 2.7688 47.1473 2.7688 44.0548C2.7688 40.9598 3.86755 38.3136 6.06505 36.1161C8.26255 33.9186 10.9075 32.8198 14 32.8198ZM15.1063 50.8048H12.8938V48.5361H15.1063V50.8048Z" fill="#00D084"/>
</svg>
