<svg width="313" height="67" viewBox="0 0 313 67" fill="none" xmlns="http://www.w3.org/2000/svg">
<path d="M48.7562 24.6H50.5V34.8937C50.5 35.8125 50.3312 36.593 49.9937 37.2352C49.6562 37.8773 49.1805 38.3648 48.5664 38.6977C47.9523 39.0305 47.2281 39.1969 46.3937 39.1969C45.6062 39.1969 44.9055 39.0539 44.2914 38.768C43.6773 38.4773 43.1945 38.0648 42.843 37.5305C42.4914 36.9961 42.3156 36.3609 42.3156 35.625H44.0312C44.0312 36.0328 44.132 36.3891 44.3336 36.6938C44.5398 36.9938 44.8211 37.2281 45.1773 37.3969C45.5336 37.5656 45.9391 37.65 46.3937 37.65C46.8953 37.65 47.3219 37.5445 47.6734 37.3336C48.025 37.1227 48.2922 36.8133 48.475 36.4055C48.6625 35.993 48.7562 35.4891 48.7562 34.8937V24.6ZM60.5758 34.5844V28.2H62.2352V39H60.5758V37.1719H60.4633C60.2102 37.7203 59.8164 38.1867 59.282 38.5711C58.7477 38.9508 58.0727 39.1406 57.257 39.1406C56.582 39.1406 55.982 38.993 55.457 38.6977C54.932 38.3977 54.5195 37.9477 54.2195 37.3477C53.9195 36.743 53.7695 35.9812 53.7695 35.0625V28.2H55.4289V34.95C55.4289 35.7375 55.6492 36.3656 56.0898 36.8344C56.5352 37.3031 57.1023 37.5375 57.7914 37.5375C58.2039 37.5375 58.6234 37.432 59.05 37.2211C59.4812 37.0102 59.8422 36.6867 60.1328 36.2508C60.4281 35.8148 60.5758 35.2594 60.5758 34.5844ZM68.4525 39.2531C67.7682 39.2531 67.1471 39.1242 66.5893 38.8664C66.0314 38.6039 65.5885 38.2266 65.2604 37.7344C64.9322 37.2375 64.7682 36.6375 64.7682 35.9344C64.7682 35.3156 64.89 34.8141 65.1338 34.4297C65.3775 34.0406 65.7033 33.7359 66.1111 33.5156C66.5189 33.2953 66.9689 33.1312 67.4611 33.0234C67.958 32.9109 68.4572 32.8219 68.9588 32.7563C69.615 32.6719 70.1471 32.6086 70.5549 32.5664C70.9674 32.5195 71.2674 32.4422 71.4549 32.3344C71.6471 32.2266 71.7432 32.0391 71.7432 31.7719V31.7156C71.7432 31.0219 71.5533 30.4828 71.1736 30.0984C70.7986 29.7141 70.2291 29.5219 69.465 29.5219C68.6729 29.5219 68.0518 29.6953 67.6018 30.0422C67.1518 30.3891 66.8354 30.7594 66.6525 31.1531L65.0775 30.5906C65.3588 29.9344 65.7338 29.4234 66.2025 29.0578C66.676 28.6875 67.1916 28.4297 67.7494 28.2844C68.3119 28.1344 68.865 28.0594 69.4088 28.0594C69.7557 28.0594 70.1541 28.1016 70.6041 28.1859C71.0588 28.2656 71.4971 28.432 71.9189 28.6852C72.3455 28.9383 72.6994 29.3203 72.9807 29.8313C73.2619 30.3422 73.4025 31.0266 73.4025 31.8844V39H71.7432V37.5375H71.6588C71.5463 37.7719 71.3588 38.0227 71.0963 38.2898C70.8338 38.557 70.4846 38.7844 70.0486 38.9719C69.6127 39.1594 69.0807 39.2531 68.4525 39.2531ZM68.7057 37.7625C69.3619 37.7625 69.915 37.6336 70.365 37.3758C70.8197 37.118 71.1619 36.7852 71.3916 36.3773C71.626 35.9695 71.7432 35.5406 71.7432 35.0906V33.5719C71.6729 33.6562 71.5182 33.7336 71.2791 33.8039C71.0447 33.8695 70.7729 33.9281 70.4635 33.9797C70.1588 34.0266 69.8611 34.0688 69.5705 34.1063C69.2846 34.1391 69.0525 34.1672 68.8744 34.1906C68.4432 34.2469 68.04 34.3383 67.665 34.4648C67.2947 34.5867 66.9947 34.7719 66.765 35.0203C66.54 35.2641 66.4275 35.5969 66.4275 36.0188C66.4275 36.5953 66.6408 37.0312 67.0674 37.3266C67.4986 37.6172 68.0447 37.7625 68.7057 37.7625ZM78.0906 24.6V39H76.4312V24.6H78.0906ZM86.9236 39V24.6H91.7893C92.9189 24.6 93.8424 24.8039 94.5596 25.2117C95.2814 25.6148 95.8158 26.1609 96.1627 26.85C96.5096 27.5391 96.683 28.3078 96.683 29.1563C96.683 30.0047 96.5096 30.7758 96.1627 31.4695C95.8205 32.1633 95.2908 32.7164 94.5736 33.1289C93.8564 33.5367 92.9377 33.7406 91.8174 33.7406H88.3299V32.1938H91.7611C92.5346 32.1938 93.1557 32.0602 93.6244 31.793C94.0932 31.5258 94.433 31.1648 94.6439 30.7102C94.8596 30.2508 94.9674 29.7328 94.9674 29.1563C94.9674 28.5797 94.8596 28.0641 94.6439 27.6094C94.433 27.1547 94.0908 26.7984 93.6174 26.5406C93.1439 26.2781 92.5158 26.1469 91.733 26.1469H88.6674V39H86.9236ZM99.267 39V28.2H100.87V29.8313H100.983C101.179 29.2969 101.536 28.8633 102.051 28.5305C102.567 28.1977 103.148 28.0312 103.795 28.0312C103.917 28.0312 104.069 28.0336 104.252 28.0383C104.435 28.043 104.573 28.05 104.667 28.0594V29.7469C104.611 29.7328 104.482 29.7117 104.28 29.6836C104.083 29.6508 103.875 29.6344 103.654 29.6344C103.129 29.6344 102.661 29.7445 102.248 29.9648C101.84 30.1805 101.517 30.4805 101.278 30.8648C101.044 31.2445 100.926 31.6781 100.926 32.1656V39H99.267ZM110.693 39.225C109.718 39.225 108.862 38.993 108.126 38.5289C107.395 38.0648 106.823 37.4156 106.411 36.5813C106.003 35.7469 105.799 34.7719 105.799 33.6562C105.799 32.5312 106.003 31.5492 106.411 30.7102C106.823 29.8711 107.395 29.2195 108.126 28.7555C108.862 28.2914 109.718 28.0594 110.693 28.0594C111.668 28.0594 112.521 28.2914 113.252 28.7555C113.988 29.2195 114.56 29.8711 114.968 30.7102C115.38 31.5492 115.587 32.5312 115.587 33.6562C115.587 34.7719 115.38 35.7469 114.968 36.5813C114.56 37.4156 113.988 38.0648 113.252 38.5289C112.521 38.993 111.668 39.225 110.693 39.225ZM110.693 37.7344C111.433 37.7344 112.043 37.5445 112.521 37.1648C112.999 36.7852 113.353 36.2859 113.583 35.6672C113.812 35.0484 113.927 34.3781 113.927 33.6562C113.927 32.9344 113.812 32.2617 113.583 31.6383C113.353 31.0148 112.999 30.5109 112.521 30.1266C112.043 29.7422 111.433 29.55 110.693 29.55C109.952 29.55 109.343 29.7422 108.865 30.1266C108.387 30.5109 108.033 31.0148 107.803 31.6383C107.573 32.2617 107.458 32.9344 107.458 33.6562C107.458 34.3781 107.573 35.0484 107.803 35.6672C108.033 36.2859 108.387 36.7852 108.865 37.1648C109.343 37.5445 109.952 37.7344 110.693 37.7344ZM118.12 43.05V28.2H119.723V29.9156H119.92C120.041 29.7281 120.21 29.4891 120.426 29.1984C120.646 28.9031 120.96 28.6406 121.368 28.4109C121.78 28.1766 122.338 28.0594 123.041 28.0594C123.951 28.0594 124.752 28.2867 125.446 28.7414C126.14 29.1961 126.681 29.8406 127.07 30.675C127.459 31.5094 127.654 32.4937 127.654 33.6281C127.654 34.7719 127.459 35.7633 127.07 36.6023C126.681 37.4367 126.142 38.0836 125.453 38.543C124.764 38.9977 123.97 39.225 123.07 39.225C122.376 39.225 121.82 39.1102 121.403 38.8805C120.986 38.6461 120.665 38.3812 120.44 38.0859C120.215 37.7859 120.041 37.5375 119.92 37.3406H119.779V43.05H118.12ZM119.751 33.6C119.751 34.4156 119.87 35.1352 120.109 35.7586C120.348 36.3773 120.698 36.8625 121.157 37.2141C121.616 37.5609 122.179 37.7344 122.845 37.7344C123.538 37.7344 124.117 37.5516 124.581 37.1859C125.05 36.8156 125.402 36.3188 125.636 35.6953C125.875 35.0672 125.995 34.3688 125.995 33.6C125.995 32.8406 125.877 32.1563 125.643 31.5469C125.413 30.9328 125.064 30.4477 124.595 30.0914C124.131 29.7305 123.548 29.55 122.845 29.55C122.17 29.55 121.602 29.7211 121.143 30.0633C120.684 30.4008 120.337 30.8742 120.102 31.4836C119.868 32.0883 119.751 32.7937 119.751 33.6ZM134.713 39.225C133.673 39.225 132.775 38.9953 132.02 38.5359C131.27 38.0719 130.691 37.425 130.284 36.5953C129.88 35.7609 129.679 34.7906 129.679 33.6844C129.679 32.5781 129.88 31.6031 130.284 30.7594C130.691 29.9109 131.259 29.25 131.985 28.7766C132.716 28.2984 133.57 28.0594 134.545 28.0594C135.107 28.0594 135.662 28.1531 136.211 28.3406C136.759 28.5281 137.259 28.8328 137.709 29.2547C138.159 29.6719 138.517 30.225 138.784 30.9141C139.052 31.6031 139.185 32.4516 139.185 33.4594V34.1625H130.86V32.7281H137.498C137.498 32.1187 137.376 31.575 137.132 31.0969C136.893 30.6187 136.551 30.2414 136.105 29.9648C135.665 29.6883 135.145 29.55 134.545 29.55C133.884 29.55 133.312 29.7141 132.829 30.0422C132.351 30.3656 131.983 30.7875 131.725 31.3078C131.467 31.8281 131.338 32.3859 131.338 32.9813V33.9375C131.338 34.7531 131.479 35.4445 131.76 36.0117C132.046 36.5742 132.442 37.0031 132.948 37.2984C133.455 37.5891 134.043 37.7344 134.713 37.7344C135.149 37.7344 135.543 37.6734 135.895 37.5516C136.251 37.425 136.558 37.2375 136.816 36.9891C137.073 36.7359 137.273 36.4219 137.413 36.0469L139.016 36.4969C138.848 37.0406 138.564 37.5188 138.166 37.9313C137.767 38.3391 137.275 38.6578 136.689 38.8875C136.103 39.1125 135.445 39.225 134.713 39.225ZM141.709 39V28.2H143.312V29.8313H143.425C143.622 29.2969 143.978 28.8633 144.494 28.5305C145.009 28.1977 145.591 28.0312 146.237 28.0312C146.359 28.0312 146.512 28.0336 146.695 28.0383C146.877 28.043 147.016 28.05 147.109 28.0594V29.7469C147.053 29.7328 146.924 29.7117 146.723 29.6836C146.526 29.6508 146.317 29.6344 146.097 29.6344C145.572 29.6344 145.103 29.7445 144.691 29.9648C144.283 30.1805 143.959 30.4805 143.72 30.8648C143.486 31.2445 143.369 31.6781 143.369 32.1656V39H141.709ZM154.45 28.2V29.6062H148.853V28.2H154.45ZM150.484 25.6125H152.144V35.9063C152.144 36.375 152.212 36.7266 152.348 36.9609C152.488 37.1906 152.666 37.3453 152.882 37.425C153.102 37.5 153.334 37.5375 153.578 37.5375C153.761 37.5375 153.911 37.5281 154.028 37.5094C154.145 37.4859 154.239 37.4672 154.309 37.4531L154.647 38.9438C154.534 38.9859 154.377 39.0281 154.176 39.0703C153.974 39.1172 153.719 39.1406 153.409 39.1406C152.941 39.1406 152.481 39.0398 152.031 38.8383C151.586 38.6367 151.216 38.3297 150.92 37.9172C150.63 37.5047 150.484 36.9844 150.484 36.3562V25.6125ZM156.946 39V28.2H158.605V39H156.946ZM157.79 26.4C157.466 26.4 157.187 26.2898 156.953 26.0695C156.723 25.8492 156.609 25.5844 156.609 25.275C156.609 24.9656 156.723 24.7008 156.953 24.4805C157.187 24.2602 157.466 24.15 157.79 24.15C158.113 24.15 158.39 24.2602 158.62 24.4805C158.854 24.7008 158.971 24.9656 158.971 25.275C158.971 25.5844 158.854 25.8492 158.62 26.0695C158.39 26.2898 158.113 26.4 157.79 26.4ZM180.067 30H176.101C176.073 29.6719 175.998 29.3742 175.876 29.107C175.759 28.8398 175.595 28.6102 175.384 28.418C175.178 28.2211 174.927 28.0711 174.631 27.968C174.336 27.8602 174.001 27.8062 173.626 27.8062C172.97 27.8062 172.414 27.9656 171.96 28.2844C171.51 28.6031 171.167 29.0602 170.933 29.6555C170.703 30.2508 170.588 30.9656 170.588 31.8C170.588 32.6813 170.706 33.4195 170.94 34.0148C171.179 34.6055 171.524 35.0508 171.974 35.3508C172.424 35.6461 172.965 35.7937 173.598 35.7937C173.959 35.7937 174.282 35.7492 174.568 35.6602C174.854 35.5664 175.103 35.4328 175.313 35.2594C175.524 35.0859 175.696 34.8773 175.827 34.6336C175.963 34.3852 176.054 34.1063 176.101 33.7969L180.067 33.825C180.02 34.4344 179.849 35.0555 179.553 35.6883C179.258 36.3164 178.838 36.8977 178.295 37.432C177.756 37.9617 177.088 38.3883 176.291 38.7117C175.494 39.0352 174.568 39.1969 173.513 39.1969C172.192 39.1969 171.006 38.9133 169.956 38.3461C168.91 37.7789 168.083 36.9445 167.474 35.843C166.869 34.7414 166.567 33.3938 166.567 31.8C166.567 30.1969 166.876 28.8469 167.495 27.75C168.113 26.6484 168.948 25.8164 169.998 25.2539C171.048 24.6867 172.22 24.4031 173.513 24.4031C174.423 24.4031 175.26 24.5273 176.024 24.7758C176.788 25.0242 177.458 25.3875 178.035 25.8656C178.611 26.3391 179.075 26.9227 179.427 27.6164C179.778 28.3102 179.992 29.1047 180.067 30ZM187.071 39.1969C185.918 39.1969 184.925 38.9766 184.09 38.5359C183.261 38.0906 182.621 37.4531 182.171 36.6234C181.725 35.7891 181.503 34.7906 181.503 33.6281C181.503 32.5125 181.728 31.5375 182.178 30.7031C182.628 29.8688 183.263 29.2195 184.083 28.7555C184.904 28.2914 185.871 28.0594 186.987 28.0594C187.803 28.0594 188.541 28.1859 189.202 28.4391C189.863 28.6922 190.428 29.0602 190.896 29.543C191.365 30.0211 191.726 30.6023 191.979 31.2867C192.232 31.9711 192.359 32.7422 192.359 33.6V34.5H182.712V32.3625H188.787C188.782 32.0531 188.703 31.7813 188.548 31.5469C188.398 31.3078 188.194 31.1227 187.936 30.9914C187.683 30.8555 187.395 30.7875 187.071 30.7875C186.757 30.7875 186.469 30.8555 186.207 30.9914C185.944 31.1227 185.733 31.3055 185.574 31.5398C185.419 31.7742 185.337 32.0484 185.328 32.3625V34.6688C185.328 35.0156 185.4 35.325 185.546 35.5969C185.691 35.8688 185.9 36.082 186.171 36.2367C186.443 36.3914 186.771 36.4688 187.156 36.4688C187.423 36.4688 187.667 36.4313 187.887 36.3562C188.112 36.2813 188.304 36.1734 188.464 36.0328C188.623 35.8875 188.74 35.7141 188.815 35.5125H192.359C192.237 36.2625 191.949 36.9141 191.494 37.4672C191.039 38.0156 190.437 38.4422 189.687 38.7469C188.942 39.0469 188.07 39.1969 187.071 39.1969ZM193.943 43.05V28.2H197.796V30.0844H197.88C198.021 29.7188 198.227 29.3836 198.499 29.0789C198.771 28.7695 199.108 28.5234 199.512 28.3406C199.915 28.1531 200.383 28.0594 200.918 28.0594C201.63 28.0594 202.308 28.2492 202.95 28.6289C203.597 29.0086 204.122 29.6062 204.525 30.4219C204.933 31.2375 205.137 32.2969 205.137 33.6C205.137 34.8469 204.942 35.8805 204.553 36.7008C204.169 37.5211 203.653 38.1328 203.006 38.5359C202.364 38.9391 201.658 39.1406 200.89 39.1406C200.383 39.1406 199.931 39.0586 199.533 38.8945C199.139 38.7258 198.801 38.4984 198.52 38.2125C198.244 37.9219 198.03 37.5938 197.88 37.2281H197.824V43.05H193.943ZM197.74 33.6C197.74 34.125 197.808 34.5797 197.944 34.9641C198.084 35.3437 198.281 35.6391 198.534 35.85C198.792 36.0563 199.099 36.1594 199.455 36.1594C199.812 36.1594 200.114 36.0586 200.362 35.857C200.615 35.6508 200.808 35.3578 200.939 34.9781C201.075 34.5938 201.143 34.1344 201.143 33.6C201.143 33.0656 201.075 32.6086 200.939 32.2289C200.808 31.8445 200.615 31.5516 200.362 31.35C200.114 31.1437 199.812 31.0406 199.455 31.0406C199.099 31.0406 198.792 31.1437 198.534 31.35C198.281 31.5516 198.084 31.8445 197.944 32.2289C197.808 32.6086 197.74 33.0656 197.74 33.6ZM209.772 39.1687C209.083 39.1687 208.473 39.0562 207.944 38.8313C207.419 38.6016 207.006 38.2547 206.706 37.7906C206.406 37.3266 206.256 36.7359 206.256 36.0188C206.256 35.4281 206.357 34.9242 206.559 34.507C206.76 34.0852 207.041 33.7406 207.402 33.4734C207.763 33.2063 208.183 33.0023 208.661 32.8617C209.144 32.7211 209.664 32.6297 210.222 32.5875C210.827 32.5406 211.312 32.4844 211.677 32.4188C212.048 32.3484 212.315 32.2523 212.479 32.1305C212.643 32.0039 212.725 31.8375 212.725 31.6313V31.6031C212.725 31.3219 212.617 31.1063 212.402 30.9563C212.186 30.8063 211.909 30.7312 211.572 30.7312C211.202 30.7312 210.899 30.8133 210.665 30.9773C210.435 31.1367 210.297 31.3828 210.25 31.7156H206.678C206.725 31.0594 206.934 30.4547 207.304 29.9016C207.679 29.3438 208.225 28.8984 208.942 28.5656C209.659 28.2281 210.555 28.0594 211.628 28.0594C212.402 28.0594 213.095 28.1508 213.709 28.3336C214.323 28.5117 214.846 28.7625 215.277 29.0859C215.709 29.4047 216.037 29.7797 216.262 30.2109C216.491 30.6375 216.606 31.1016 216.606 31.6031V39H212.978V37.4813H212.894C212.678 37.8844 212.416 38.2102 212.106 38.4586C211.802 38.707 211.452 38.8875 211.059 39C210.67 39.1125 210.241 39.1687 209.772 39.1687ZM211.037 36.7219C211.333 36.7219 211.609 36.6609 211.867 36.5391C212.13 36.4172 212.343 36.2414 212.507 36.0117C212.671 35.782 212.753 35.5031 212.753 35.175V34.275C212.65 34.3172 212.54 34.357 212.423 34.3945C212.31 34.432 212.188 34.4672 212.057 34.5C211.93 34.5328 211.795 34.5633 211.649 34.5914C211.509 34.6195 211.361 34.6453 211.206 34.6688C210.906 34.7156 210.66 34.793 210.468 34.9008C210.28 35.0039 210.14 35.1328 210.046 35.2875C209.957 35.4375 209.912 35.6062 209.912 35.7937C209.912 36.0938 210.018 36.3234 210.229 36.4828C210.44 36.6422 210.709 36.7219 211.037 36.7219ZM224.901 28.2V31.0125H217.786V28.2H224.901ZM219.164 25.6125H223.045V35.5266C223.045 35.6766 223.071 35.8031 223.122 35.9063C223.174 36.0047 223.254 36.0797 223.362 36.1312C223.469 36.1781 223.608 36.2016 223.776 36.2016C223.894 36.2016 224.029 36.1875 224.184 36.1594C224.344 36.1313 224.461 36.1078 224.536 36.0891L225.098 38.8172C224.925 38.8688 224.676 38.932 224.353 39.007C224.034 39.082 223.654 39.1312 223.214 39.1547C222.323 39.2016 221.576 39.1102 220.971 38.8805C220.366 38.6461 219.912 38.2781 219.607 37.7766C219.302 37.275 219.154 36.6469 219.164 35.8922V25.6125Z" fill="#191919"/>
<path d="M14.5 26.1952H5.4813V41.9114H14.5V44.1802H5.4813C4.8838 44.1802 4.36505 43.9514 3.92505 43.4939C3.48755 43.0364 3.2688 42.5089 3.2688 41.9114V26.1952C3.2688 25.5977 3.48755 25.0702 3.92505 24.6127C4.36505 24.1577 4.8838 23.9302 5.4813 23.9302H14.5V26.1952ZM18.5613 29.9939L20.1438 28.4114L25.7313 34.0552L20.1438 39.6952L18.5613 38.0602L21.46 35.1614H10.0188V32.9452H21.46L18.5613 29.9939Z" fill="#00D084"/>
</svg>
